<svg xmlns="http://www.w3.org/2000/svg" viewBox="0 0 298.11 413.67"><defs><style>.cls-1{fill:#002248;fill-rule:evenodd;}</style></defs><g id="Layer_2" data-name="Layer 2"><g id="Layer_1-2" data-name="Layer 1"><path class="cls-1" d="M116.69,302.32a26.49,26.49,0,0,0,10.08-4.75,4.43,4.43,0,0,0-3.07-2.45h0c-2.21-.5-2.63-.23-3.2,2-.07.3-.16.59-.29,1.08-.55-.58-1-1.06-1.47-1.56-.07-.07,0-.28,0-.41q1.35-4.86,2.72-9.72c0-.17.13-.32.2-.51.69.4,1.34.75,1.94,1.15.1.05.1.38,0,.55-.53,1.47-1.08,2.93-1.65,4.46,2.9.28,4.77,1.91,6.08,4.46.32-.28.62-.53.9-.8a9.61,9.61,0,0,0,2.56-4.07,2.47,2.47,0,0,0-.15-2c-.16-.3-.31-.62-.49-1l1.09-.58c.24.43.45.83.66,1.22.53.94,1,1.89,1.6,2.8a1.74,1.74,0,0,1,.23,1.31,6.52,6.52,0,0,1-1.52,3.17,39.62,39.62,0,0,1-2.82,2.83.6.6,0,0,0-.22.77,12.46,12.46,0,0,1,.09,8.41,7.15,7.15,0,0,1-9.29,4.62,6.29,6.29,0,0,1-3.66-3.87,23.82,23.82,0,0,1-.91-3c-.12-.48-.29-.57-.73-.51a9.37,9.37,0,0,1-4.6-.45,3.08,3.08,0,0,1-1.72-1.39c-.61-1.12-1.26-2.22-1.84-3.36a4.57,4.57,0,0,1,.07-4.18,3.44,3.44,0,0,1,4.36-1.79,5.65,5.65,0,0,1,3,2.4,14.61,14.61,0,0,1,1.9,4.75,3.27,3.27,0,0,1,.14.44Zm11.63-1.43a28.52,28.52,0,0,1-10.83,4.75,4.65,4.65,0,0,0,4.08,3.87,7.87,7.87,0,0,0,1.61,0,6.15,6.15,0,0,0,5.14-8.64Zm-13.14,1.59a8.83,8.83,0,0,0-1.92-3.57,3.81,3.81,0,0,0-2.64-1.19,1.84,1.84,0,0,0-1.78,1,1.8,1.8,0,0,0,0,2.07,4.64,4.64,0,0,0,1.52,1.31,8,8,0,0,0,4.78.39Z"/><path class="cls-1" d="M100.55,334.49c1.29.42,2.49.81,3.7,1.18,4.09,1.28,8.18,2.57,12.27,3.81,1.62.49,1.89.32,2.55-1.26a2.87,2.87,0,0,0,.25-.67c.09-.49.33-.53.78-.39s.57.3.4.8c-.79,2.38-1.52,4.79-2.27,7.18l-.17.51-1.11-.34c.14-.62.29-1.18.39-1.76.21-1.12.06-1.45-1-1.84-2.13-.77-4.26-1.51-6.41-2.2-3.74-1.2-7.5-2.35-11.24-3.52a7.55,7.55,0,0,0-.79-.19c-1-.22-1.26-.11-1.73.83a6.88,6.88,0,0,0-.53,1.26c-.13.46-.34.55-.74.36-.18-.09-.37-.12-.6-.21.07-.22.13-.39.17-.56.6-1.87,1.19-3.74,1.8-5.61a.76.76,0,0,1,.4-.41l23.9-9.22a1.92,1.92,0,0,0,.27-.17l-1.44-.43c-4.76-1.46-9.51-2.93-14.27-4.37-.59-.18-1.2-.29-1.79-.41a.85.85,0,0,0-1,.49,15,15,0,0,0-.81,1.78c-.23.68-.6.2-.9.17s-.36-.29-.26-.6c.78-2.46,1.57-4.92,2.33-7.39.1-.32.21-.44.53-.32s.47.17.73.26c-.1.49-.23.92-.29,1.37-.19,1.28,0,1.61,1.13,2.06,2.93,1.09,5.86,2.21,8.83,3.17,4,1.29,8,2.45,12,3.67.7.21.69.22.32.87a18.76,18.76,0,0,0-1,1.83,1.5,1.5,0,0,1-.88.88q-9.56,3.81-19.1,7.65c-1.31.52-2.64,1-4,1.51l-.48.23Z"/><path class="cls-1" d="M112.31,281.09l3.14-10.39s0,0,0,0c1,.24,1,.24.76,1.27a11,11,0,0,0-.21,1.26c-.06.74.08,1,.73,1.31,1.22.5,2.45,1,3.7,1.4q7,2.31,14,4.59l.27.07c1.48.38,1.72.26,2.35-1.24,0-.13.11-.27.16-.41.39-1,.4-1,1.41-.49,0,.18-.1.37-.16.56q-1.38,4.64-2.79,9.24c-.05.18-.2.5-.25.49a3.51,3.51,0,0,1-.94-.33c-.05,0,0-.27,0-.41.1-.53.23-1.05.31-1.58.14-.86,0-1.22-.79-1.54-1.72-.67-3.46-1.32-5.21-1.9q-6.33-2.1-12.69-4.11c-1.42-.45-1.67-.27-2.28,1.17a4.87,4.87,0,0,0-.31.83c-.1.47-.33.6-.75.39a2.25,2.25,0,0,0-.52-.17Z"/><path class="cls-1" d="M100.27,116.31a25.94,25.94,0,0,1-1.43,2.34,6.34,6.34,0,0,1-4.8,2.8c-1.25.13-2.52.18-3.78.28a4.73,4.73,0,0,1-.65,0c-.76,0-.91-.14-1.09-.85-.11-.38-.17-.76-.25-1.15a32.72,32.72,0,0,0-3.77-9.83,15.69,15.69,0,0,0-2.12-2.81,3.6,3.6,0,0,0-2.4-1.17c-.65,0-1.3-.12-2-.16a1.55,1.55,0,0,1-1.29-.77c-.24-.42-.53-.8-.74-1.23a3.15,3.15,0,0,0-2.47-1.7,14.4,14.4,0,0,0-3.65-.09c-.65,0-1.29.13-2,.16-2.2.07-1.86.17-3.21-1.4a36.6,36.6,0,0,0-6.9-6.37,20.4,20.4,0,0,0-6.18-3.06,2.33,2.33,0,0,0-2.52.58c-.73.74-1.52,1.44-2.26,2.17a32,32,0,0,1-5.09,4.28,1.66,1.66,0,0,0-.21.16.62.62,0,0,0-.26.68,6.22,6.22,0,0,0,.25.87,14.33,14.33,0,0,0,1.56,3,44.29,44.29,0,0,0,3.21,4.13q1.41,1.71,2.77,3.47a14.4,14.4,0,0,1,1.37,2.22,3.83,3.83,0,0,1,.41,1.88c-.07,3-.13,5.92-.17,8.88a8.58,8.58,0,0,0,.12,1.83A20.88,20.88,0,0,0,55.1,135a24.64,24.64,0,0,0,5.25,4.68c1.07.73,2.19,1.41,3.29,2.13.65.43.68.66.23,1.25-.22.28-.47.53-.69.78-3.14,3.56-6.23,7.16-9,11a64.47,64.47,0,0,0-9.49,18.22,5.64,5.64,0,0,1-.33.84.66.66,0,0,1-.74.42c-.47-.08-.93-.18-1.4-.29-3.27-.8-6.45-1.85-9.66-2.84a62.08,62.08,0,0,0-8.89-2.11c-.69-.11-1.38-.16-2.08-.22a.47.47,0,0,0-.5.35.66.66,0,0,0,.15.72,1.5,1.5,0,0,0,.44.26c.33.12.66.23,1,.33l22,6.8c.3.09.59.19.88.25a.68.68,0,0,0,.9-.53,2.38,2.38,0,0,0,.11-.38,44,44,0,0,1,3.91-10.08A100.86,100.86,0,0,1,63.61,147a28.93,28.93,0,0,1,3.49-3.51c1-.84,1.06-1.07.31-2.12a7.59,7.59,0,0,0-.68-.79,9.46,9.46,0,0,0-2.16-1.67c-1.25-.71-2.52-1.39-3.78-2.07a25,25,0,0,1-3.22-2,7.34,7.34,0,0,1-2.67-4.07,10.76,10.76,0,0,1-.37-2.45c0-2.39,0-4.79.16-7.18a18.3,18.3,0,0,0-.6-6.07,20.18,20.18,0,0,0-3.51-6.95c-1.13-1.49-2.35-2.92-3.53-4.36-.6-.75-1.22-1.48-1.79-2.26s-.57-1.42.27-2.14c1.25-1.09,2.4-2.28,3.57-3.45.44-.44.86-.86,1.33-1.27,1.41-1.24,1.45-1.25,3-.18a102.84,102.84,0,0,1,9.1,7,9.25,9.25,0,0,1,.84.81,2.66,2.66,0,0,1,.39.67.64.64,0,0,1-.54.87,11.71,11.71,0,0,1-1.57.07,5.15,5.15,0,0,0-2.28.49,2.39,2.39,0,0,0-.52.38s0,.16,0,.24a.29.29,0,0,0,.19.14,6.5,6.5,0,0,0,.9-.12,43.15,43.15,0,0,1,7-1.13,16.45,16.45,0,0,1,4.43.18,5.22,5.22,0,0,1,3.82,2.68,8.2,8.2,0,0,1,.72,1.53,1.36,1.36,0,0,0,1.47,1c.61,0,1.22,0,1.83,0,1.61,0,1.68.09,2,1.62a21.23,21.23,0,0,0,1,3.77,9.78,9.78,0,0,0,1.06,2.09c.12.17.23.39.49.38s.14-.31.14-.47c0-.31,0-.62,0-.91s.31-.42.59-.27a1.14,1.14,0,0,1,.55.69,5.18,5.18,0,0,1,.23,1,25.55,25.55,0,0,1,.17,6c-.09.64-.14,1.29-.2,1.94,0,.47.12.62.61.56.21,0,.43-.09.65-.13.81-.14,1.63-.29,2.45-.42,1.77-.27,3.54-.49,5.3-.79a12.7,12.7,0,0,0,7.71-4.3,54.35,54.35,0,0,0,4.26-5.45c1.08-1.64,2.17-3.26,3.16-5,1.94-3.3,3.77-6.67,5.69-10a104.1,104.1,0,0,0,5.58-10.48,2,2,0,0,1,1.19-1.12c.78-.27,1.55-.59,2.32-.89,4.66-1.81,9.33-3.64,14.09-5.21.47-.16,1.07-.12,1.34-.67-.18-.69-.85-.65-1.35-.83a48,48,0,0,1-6.5-2.73,17.85,17.85,0,0,1-3.37-2.22,5.86,5.86,0,0,1-1.65-2.16c-.3-.67-.66-1.32-.93-2a30.8,30.8,0,0,0-5.31-8.78,25,25,0,0,1-2.94-4.31c-.55-1-.55-1,.42-1.76a1,1,0,0,0,.42-1.14c-.07-.26-.13-.51-.2-.76a28.23,28.23,0,0,1-.81-6.07,93.38,93.38,0,0,1,.91-14.18c.55-4.28,1.23-8.53,1.5-12.84a2,2,0,0,1,.89-1.65,8.47,8.47,0,0,0,2.16-2.42c.44-.7.85-1.42,1.27-2.13s.94-1.67,1.43-2.5A9.79,9.79,0,0,1,129.77,9a47.75,47.75,0,0,1,5.57-2.26,187,187,0,0,1,24-6.26A19.27,19.27,0,0,1,163.64,0,25.16,25.16,0,0,1,171,1.28a31.14,31.14,0,0,0,5.89,1.15c4.41.58,8.81,1.12,13.22,1.68l13.09,1.7a8.7,8.7,0,0,0,2.74-.09c2.69-.5,5.4-1,8.11-1.42C220.65,3.13,227.3,2,233.94.78a6.29,6.29,0,0,1,3.22.2c3.56,1.18,7.14,2.28,10.7,3.45a29.71,29.71,0,0,0,5.75,1.21,27.46,27.46,0,0,1,4.11.74,7.39,7.39,0,0,1,2.47,1.17c.24.18.53.41.4.75-.2.59.13.78.59.93,1.44.5,2.89,1,4.32,1.51a24.09,24.09,0,0,1,4,1.9,12,12,0,0,1,1.61,1.13c.63.53.64.76.25,1.46a5.26,5.26,0,0,1-2,2c-.8.46-1.61.88-2.42,1.29a7.33,7.33,0,0,0-2.87,2.6,17.71,17.71,0,0,0-1.43,2.64,43.58,43.58,0,0,0-2.77,9.64,2,2,0,0,0,.36,1.6c.66,1,1.3,2,1.9,3a14.46,14.46,0,0,1,1.43,3.36,9.06,9.06,0,0,1-1.15,7.75c-.26.41-.55.79-.83,1.17a20.7,20.7,0,0,1-3.55,3.45,10.27,10.27,0,0,0-.78.68.52.52,0,0,0-.06.71,5.81,5.81,0,0,0,.49.6,7.86,7.86,0,0,0,3,2c1.27.49,1.29.5,1.12,1.91a.53.53,0,0,1,0,.13c-.87,5.47-1.75,10.91-2.62,16.38-.08.52-.18,1-.3,1.54a.84.84,0,0,1-.73.65c-.21,0-.43.06-.65.08l-5.86.49c-1.57.13-3.14.21-4.68.39a29.31,29.31,0,0,1-5.62,0c-.53,0-1-.1-1.57-.13l-6.26-.47a10.23,10.23,0,0,0-2.21,0,84.72,84.72,0,0,1-10.67.93c-2.44,0-4.88.06-7.31.15-4.62.17-9.24.24-13.86.34-1.53,0-3,0-4.58.06-.31,0-.69-.09-.86.18-.48.68-1.19.68-1.87.77-2.42.3-4.83.57-7.27.83-2.73.31-5.46.58-8.19.88-.48.06-.94.13-1.42.23a.86.86,0,0,0-.76,1,3.77,3.77,0,0,0,1.08,2.19,2,2,0,0,0,1.68.55h.78a35.45,35.45,0,0,1,6.48.74A20.53,20.53,0,0,1,197,95.48a40.29,40.29,0,0,1,3.39,5.26,86,86,0,0,0,6,9.35c3.29,4.55,6.52,9.15,9.5,13.93A56.7,56.7,0,0,1,222,136a15.63,15.63,0,0,0,1.32,2.85,6.74,6.74,0,0,0,1.76,2.07c.92.72,1.84,1.48,2.76,2.2a7.93,7.93,0,0,1,1.3,1.29c2.95,3.66,5.87,7.34,8.86,11a43.77,43.77,0,0,1,5,7.62c1.49,2.82,3,5.59,4.57,8.38.4.71.88,1.4,1.34,2.08a1.9,1.9,0,0,0,1.41.85c.61.09,1.05.07,1.38-.67a8.31,8.31,0,0,1,2.88-3.31,18.82,18.82,0,0,0,2.75-2.2,1.08,1.08,0,0,1,1.72.08,8,8,0,0,1,.72.93c.59.81,1.19,1.62,1.73,2.46a4.14,4.14,0,0,0,4.46,2c1.16-.16,2.3-.45,3.44-.72,1.49-.37,3-.7,4.45-1.07a3.5,3.5,0,0,1,2.54.3c.7.35,1.41.68,2.11,1a9.59,9.59,0,0,0,2.33.8,5.24,5.24,0,0,0,2.46-.06c.75-.21.94-.4,1-1.17,0-1,0-2.08,0-3.13,0-.87-.25-1.09-1.08-1.12-.31,0-.61,0-.91,0l-4.45,0a22.56,22.56,0,0,1-6.08-.67,3,3,0,0,0-2,.16c-.6.28-1.17.59-1.77.84a19.15,19.15,0,0,1-1.94.78c-.69.24-.92.12-1.29-.51-.24-.41-.45-.84-.69-1.25a6.11,6.11,0,0,0-6.35-3,14.8,14.8,0,0,0-3.54.88l-2.43,1c-.29.11-.58.22-.86.31a.56.56,0,0,1-.59-.2,4.73,4.73,0,0,1-.35-.56,37.15,37.15,0,0,0-3-4.46c-2.38-3.21-4.92-6.31-7.49-9.38-3.39-4-6.81-8-10.42-11.88a24.27,24.27,0,0,1-3.18-4.3c-.8-1.35-1.62-2.7-2.36-4.07-2.49-4.58-5-9.19-7.44-13.79-1.84-3.41-3.62-6.84-5.62-10.18-.26-.43-.84-.91-.57-1.36a.46.46,0,0,1,.22-.22c2.34-1.33,16,14.89,26.64,32,7.51,12.12,10.4,19.75,18.41,21.62,2.21.52,2.49.06,9.2-.26,14.94-.69,22.41-1.05,26.23,2.59s2.75,10.41.83,24.16c-2.1,15.19-3.17,22.8-9.2,27.58-5.79,4.57-10.9,2.64-14.62,8.1-2.54,3.74-3.81,10-1.08,14.06,4.45,6.57,15.26.64,22.2,7.7,4.74,4.84,5.39,13.45,3.4,19.26s-5.47,5.6-6.67,10.89c-1.81,8,5.3,12.68,2.71,17.3-2.28,4.1-8.44,1.49-13.53,6.5a16,16,0,0,0-4.33,13.51c1.37,8,9.36,8.56,18.41,19.46,4.62,5.58,10.93,13.18,9.2,20-2.19,8.64-16.42,12.65-32.13,17.07-15.44,4.34-25.56,4.63-26.88,10-.86,3.47,3.07,4.83,4.33,11.35,1.37,7.07-1.13,16.35-7.57,21.09-6.17,4.53-13.58,3.19-22.19,1.62a59.05,59.05,0,0,1-21.66-8.65Q96.31,372,1.07,340.33c-.54-2.43-2.62-12.8,1.9-15.69,2.36-1.52,5.53-.33,10.82,1.89,21,8.83,25,12.72,33,12.44,7.1-.25,14-3.67,14.31-7,.2-2.12-2.4-3.71-2.13-7.37a9.28,9.28,0,0,1,1.62-4.31c4.36-7.46,6.54-11.19,6-13.52-.93-3.76-6.69-2.44-13.53-8.38-5.51-4.77-4.35-7.85-7.57-8.92-8.29-2.76-17.65,16.85-27.34,14.32-3.84-1-6.22-5.1-8.12-8.38-1.6-2.77-4.74-8.21-3-13,2.43-6.57,12.55-7.39,12.18-10-.27-1.88-5.45-.95-10.28-4.87-3.07-2.49-5.85-6.8-5.69-11.35.07-2.13.75-3.27,4.06-9.46,2.1-4,4.65-8.79,5.41-10.27,1.88-3.69,9.19-18.08,4.33-23.8-2.75-3.21-6.74-.58-11.37-4.59A15.21,15.21,0,0,1,.82,196.52C1,191.3,4.1,189.61,8.67,182.2,16.14,170.07,13.76,165,18.42,163c7.41-3.11,15.75,8.87,22.59,5.25,2.62-1.38,1.52-3.2,6.1-10.93,5.14-8.68,9-10.56,8.3-14.42C54.83,139.79,52.1,140,49,136c-5.2-6.73-1.2-12.09-4.87-20-4.24-9.14-12.36-8-13.24-14.2-1.07-7.57,9.74-18,19.46-17.71,4.79.18,4.86,2.83,16,9.2,12.86,7.38,17.93,6.78,22.19,13.25,3.63,5.5,2.29,9.46,4.87,10.27,6.6,2.07,20.41-22.16,20.3-22.24s-1.27,1.66-1.68,2.32a10.51,10.51,0,0,0-.68,1.27c-1.1,2.22-2.18,4.45-3.26,6.69-.7,1.5-1.45,3-2.29,4.4A26.87,26.87,0,0,1,102.3,114c-.29.31-.47.26-.78.52a3.87,3.87,0,0,0-1.25,1.84Zm45.43-.07c-3.11,0-6.18.22-9.27.47a98,98,0,0,0-12.78,1.9,103.09,103.09,0,0,0-38.11,16.84c-3.52,2.51-6.82,5.28-10.08,8.1A92.53,92.53,0,0,0,68.58,150a47.57,47.57,0,0,0-5.29,6.64c-.59.91-1.09,1.87-1.74,2.76a92.38,92.38,0,0,0-5.14,7.87A101.36,101.36,0,0,0,46,191.54a102.52,102.52,0,0,0-3.19,16.39c-.41,3.67-.63,7.37-.68,11.06,0,3.26.18,6.53.43,9.78a93,93,0,0,0,1.74,11.87,102.21,102.21,0,0,0,15.07,36.05,103.59,103.59,0,0,0,18.22,20.75q3.69,3.22,7.68,6.08a8.28,8.28,0,0,0,1.1.67A.4.4,0,0,0,87,304c.19-.48.37-1,.52-1.48a137.86,137.86,0,0,1,4.41-13.24c.15-.36.25-.74.4-1.1a1.33,1.33,0,0,0-.5-1.73,4.23,4.23,0,0,1-.4-.34,83.21,83.21,0,0,1-7.68-7.46,84.07,84.07,0,0,1-19.38-36A79,79,0,0,1,62,227.88a68.71,68.71,0,0,1-.17-8.61c.17-2.47.28-4.94.56-7.42a80.18,80.18,0,0,1,3.33-15.41A84.71,84.71,0,0,1,142,137.58a75.27,75.27,0,0,1,12,.25,85.88,85.88,0,0,1,12.24,2,84.76,84.76,0,0,1,57.3,47.9,82.07,82.07,0,0,1,7,28.64,84.57,84.57,0,0,1-51.3,83.21A85.39,85.39,0,0,1,149,306.31c-1.74.07-1.74.07-2.42,1.61a94.86,94.86,0,0,0-4.67,13.16,6.77,6.77,0,0,0-.21.89.58.58,0,0,0,.52.76,9.93,9.93,0,0,0,1.55.16c2.18.05,4.36-.05,6.54-.14a99.87,99.87,0,0,0,12-1.19,101.59,101.59,0,0,0,28.45-9A104,104,0,0,0,237.57,267a101.72,101.72,0,0,0,10.61-33.71,122.22,122.22,0,0,0,.95-13.79c0-1.79-.17-3.56-.2-5.35s-.19-3.48-.37-5.21a98.72,98.72,0,0,0-2.14-12.87,101.83,101.83,0,0,0-33.16-54.71c-19.42-16.63-42-24.8-67.56-25.14ZM126.62,355.8c-.5-.22-.73-.47-.6-.95s.23-.83.36-1.26c.84-2.75,1.7-5.49,2.54-8.23q5.52-18,11.05-36.08,6.27-20.61,12.5-41.24c4.88-16.21,9.77-32.42,14.43-48.68,1-3.43,1.9-6.88,2.83-10.33a9.69,9.69,0,0,0,.43-2.44,34.28,34.28,0,0,0-1.42-10.31,18.52,18.52,0,0,0-2.58-5.4,10.77,10.77,0,0,0-4.13-3.53,37.86,37.86,0,0,0-18.7-4,26,26,0,0,0-9.36,2.23,17.47,17.47,0,0,0-5.08,3.4,6.4,6.4,0,0,0-1.72,2.87q-4.77,15.88-9.57,31.75-6.72,22.32-13.42,44.64-7,23.44-13.85,47c-3.46,11.86-6.88,23.75-9.94,35.72-.49,1.85-.89,3.72-1.34,5.58-.07.3-.11.6-.16.9a.37.37,0,0,0,.21.43.4.4,0,0,0,.54-.24,8.6,8.6,0,0,0,.33-.84c.21-.62.4-1.24.61-1.86a2.66,2.66,0,0,1,.3-.58.25.25,0,0,1,.23-.06.31.31,0,0,1,.18.16,4,4,0,0,1,0,1.42c-.08.78-.19,1.56-.24,2.34s.06.93.91,1.11l.26,0a50.31,50.31,0,0,1,8.18,2.26c3.2,1.16,6.31,2.52,9.43,3.86,2.85,1.22,5.71,2.4,8.65,3.33a2.56,2.56,0,0,0,1.22.23,3.31,3.31,0,0,0-1.15-.93,17.08,17.08,0,0,0-4-1.7c-1.63-.5-3.26-1-4.88-1.47a19.6,19.6,0,0,1-3.61-1.49,8.85,8.85,0,0,1-2.1-1.55,4.09,4.09,0,0,1-.38-.52c-.08-.14.06-.37.22-.42a2.1,2.1,0,0,1,.9,0,24.06,24.06,0,0,1,6.07,2c1.28.56,2.54,1.14,3.83,1.68a20.88,20.88,0,0,0,5.93,1.52c.53,0,1,.12,1.56.21a.58.58,0,0,1,.55.73c-.06.52-.18,1-.29,1.54-.26,1.28-.17,1.43,1,1.81,1,.33,2,.65,3,.94a22.26,22.26,0,0,0,2.54.59c1,.17,1.36-.06,1.7-1s.55-1.65.82-2.47c1.23-3.76,2.47-7.53,3.69-11.29.23-.71.5-1.38,1.49-1.35Zm36.15-27.41c-.61,0-1.22,0-1.83,0-2.78.13-5.57.27-8.35.44s-5.57.38-8.35.6c-.9.08-1.8.29-2.71.36a2,2,0,0,0-2,1.86c-.81,3.42-1.76,6.82-2.64,10.23-.05.21-.11.43-.15.63-.09.55,0,.69.51.88.89.35,1.82.64,2.68,1a78.5,78.5,0,0,1,16.25,10.15,32,32,0,0,1,3.27,3,15.91,15.91,0,0,1,2.07,2.69q1.64,2.67,3.31,5.32c.83,1.34.84,1.32,2.41.81,2.32-.74,4.64-1.51,7-2.21,7.27-2.17,14.64-3.94,22.05-5.48s14.81-2.81,22.25-4q8.85-1.36,17.73-2.5c4.63-.6,9.25-1.12,13.89-1.67,4.15-.5,8.3-1,12.46-1.49l13.09-1.62c1.16-.15,1.34-.36,1.35-1.49,0-.35,0-.69,0-1a11.29,11.29,0,0,1,.4-3.62,1.77,1.77,0,0,0-.55-2c-.48-.44-.93-.91-1.41-1.36l-4.55-4.13a161.74,161.74,0,0,1-14.34-14.46,104.41,104.41,0,0,1-9.87-13.31,72.59,72.59,0,0,1-9.54-22.9c-.06-.26-.11-.52-.19-.76a.41.41,0,0,0-.72-.19c-.36.32-.69.66-1,1l-20.3,21.07L204.7,314.91l-2.61,2.74c-1.12,1.16-1.13,1.15-2.59.67-.62-.21-1.24-.42-1.87-.6a9.85,9.85,0,0,0-3.1-.43c-.36,0-.7,0-.88.43a.69.69,0,0,1-.65.36,2.31,2.31,0,0,0-.64.1.43.43,0,0,0-.23.29.41.41,0,0,0,.12.34,5.37,5.37,0,0,0,.91.5l4,1.67c1.76.73,1.61.63,2.05,2.37,1.18,4.54,2.34,9.1,3.5,13.65.54,2.1,1.05,4.22,1.63,6.32a1.3,1.3,0,0,1-.56,1.58c-.15.1-.27.22-.41.33q-2.83,2.2-5.68,4.4c-1,.82-1.08.81-2.17.12l-.22-.13c-2.18-1.44-4.36-2.88-6.56-4.3a16.51,16.51,0,0,1-2.83-2.31q-6.82-6.84-13.68-13.67c-1.47-1.47-1.21-1.33-3.32-1.31a9,9,0,0,0-1,0c-1.67.22-3.37.21-5.08.32Zm19.58,74.33c-.12-.22-.35-.24-.55-.32l-2.56-.95q-28.14-10.24-56.37-20.16Q96.6,372,70.23,363.16c-13.68-4.6-27.37-9.11-41.17-13.3-6.46-2-12.93-3.88-19.5-5.48a54.17,54.17,0,0,0-6.41-1.26,4,4,0,0,0-.77,0c-.09,0-.18.16-.24.26a.26.26,0,0,0,.08.24,3.53,3.53,0,0,0,.52.39,5.54,5.54,0,0,1,1.61,1.86,2.24,2.24,0,0,1,.27.59,1.85,1.85,0,0,1-.42,1.93c-.57.39-1.1-.24-1.58-.62-.3-.25-.57-.53-.86-.78a.28.28,0,0,0-.42.15c0,.22-.06.44-.09.64-.23,1.69-.14,3.39-.3,5.09a33.74,33.74,0,0,0-.11,4.82,21,21,0,0,0,.53,4.27c.44,1.81.58,2,2.38,2.55L32,373.65q30,9.75,59.91,19.48c6.46,2.11,12.84,4.45,19.34,6.46,4.49,1.39,9,2.76,13.48,4.17a8.05,8.05,0,0,0,2.84.37c.86-.06,1.74-.12,2.61-.14,4.28-.1,8.55-.1,12.8-.28,3.48-.15,7-.09,10.46-.23,4.4-.18,8.8-.15,13.2-.3,5-.17,10-.22,15-.33.21,0,.49.12.69-.13ZM163.26,261.14a10.7,10.7,0,0,0,1.44,5.65c.22.32.38.68.58,1a186.63,186.63,0,0,1,9,17.52,50.49,50.49,0,0,0,3.38,6.48c.74,1.2.88,1.24,2.19.62a58.18,58.18,0,0,0,7.06-4,97.22,97.22,0,0,0,27.33-27c.59-.86,1.18-1.72,1.78-2.57l4.33-6.22a13,13,0,0,0,.91-1.57.53.53,0,0,0-.32-.84c-.29-.1-.58-.17-.87-.26L179.13,239.3c-2.14-.57-4.3-1.13-6.45-1.68-1-.24-1.07-.17-1.55.71s-.92,1.77-1.39,2.65a73.8,73.8,0,0,0-4.9,11.24,31.12,31.12,0,0,0-1.58,8.92Zm87.45-20.95a31.44,31.44,0,0,1,6.13,2,10.93,10.93,0,0,0,1.36.47,22.53,22.53,0,0,1,3.09,1.06c1.82.74,3.61,1.51,5.42,2.28a84.84,84.84,0,0,0,8.78,3.36c.17,0,.33.12.5.17a1.25,1.25,0,0,1,.92,1.28,9.93,9.93,0,0,1-.08,1.44,34.9,34.9,0,0,1-2.6,9,15.77,15.77,0,0,1-1.34,2.54,10.43,10.43,0,0,1-1,1.2,1.32,1.32,0,0,1-1.44.37c-.63-.19-1.25-.38-1.87-.61-2.43-.84-4.85-1.71-7.29-2.53a31,31,0,0,0-6.36-1.43,19.65,19.65,0,0,0-3.91,0c-.74.07-1.19.25-1.06,1.12a2.35,2.35,0,0,1,0,.26c0,.54-.14.73-.67.78a2.37,2.37,0,0,0-1.78,1.15,25.48,25.48,0,0,1-2.79,3.28c-.77.81-1.54,1.66-2.29,2.51a12,12,0,0,0-2.5,4.82,13,13,0,0,0-.42,3.62,1.29,1.29,0,0,0,.67,1.19c.35.2.67.42,1,.6a1.21,1.21,0,0,1,.68,1.29c0,.18,0,.35,0,.53a13.28,13.28,0,0,0,.65,4.63,32.9,32.9,0,0,0,1.75,4.49,71.19,71.19,0,0,0,3.53,6.55,157.33,157.33,0,0,0,13.35,18.37,6.6,6.6,0,0,0,.91.92,28.22,28.22,0,0,1,3.23,3.05c3.76,3.95,7.25,8.12,10.63,12.4,1.43,1.81,2.83,3.64,4.09,5.56.38.59.72,1.2,1.08,1.8a2.19,2.19,0,0,1,.22,1.88,10.72,10.72,0,0,0-.32,1.27,5.29,5.29,0,0,0,1.23,5,3.73,3.73,0,0,1,.26.3c.26.34.27.53,0,.8a29.38,29.38,0,0,1-4.55,4.3,33.08,33.08,0,0,1-6.51,3.6,61.81,61.81,0,0,1-7.92,2.64c-4.84,1.3-9.77,2.25-14.65,3.38a75,75,0,0,0-7.82,2.08l-13.73,4.7c-1,.34-2,.66-3,1s-1.07.64-.87,1.59a15.07,15.07,0,0,0,1.3,3.68A18.14,18.14,0,0,0,227.6,380c1,1.08,1.9,2.17,2.86,3.22a1.68,1.68,0,0,1,.35,1.82,27,27,0,0,1-1.31,3.26c-.81,1.64-1.65,3.27-2.46,4.9-.71,1.4-1.42,2.8-2,4.26A17.7,17.7,0,0,0,224,401a6.25,6.25,0,0,0,.14,2.85,2,2,0,0,0,1.53,1.6c1.27.31,2.53.65,3.79,1a2.24,2.24,0,0,0,.52.06,1,1,0,0,0,1-.51c.15-.27.28-.55.41-.82.78-1.6,1.57-3.2,2.34-4.8.63-1.29,1.28-2.58,1.9-3.88a21.07,21.07,0,0,0,1.58-4.54,9.26,9.26,0,0,0-1.14-7,23.1,23.1,0,0,0-2.13-2.79c-.74-.85-1.5-1.71-2.21-2.58a12.4,12.4,0,0,1-2.3-4.35,9.05,9.05,0,0,1-.25-1.28.55.55,0,0,1,.41-.6,3.17,3.17,0,0,1,.5-.15,18.1,18.1,0,0,0,6.06-2.32c.73-.41,1.46-.79,2.18-1.18a21.82,21.82,0,0,1,4.5-1.77c8-2.15,16-4.33,24-6.47a27.37,27.37,0,0,0,5.72-2.2c1.3-.69,2.61-1.39,3.91-2.11,4.34-2.43,8.45-5.22,12.61-7.94.14-.09.28-.2.42-.31a.94.94,0,0,0,.4-1c-.16-.76-.31-1.54-.49-2.3a1,1,0,0,0-.17-.35.37.37,0,0,0-.45-.18,6.45,6.45,0,0,0-.59.29c-.83.4-1.65.81-2.49,1.17a1.07,1.07,0,0,1-1.64-.87,7.41,7.41,0,0,1,0-2.35c.11-.91.23-1.81.35-2.72a8.28,8.28,0,0,0-1.79-6.74c-.54-.63-1.07-1.26-1.64-1.85a35.86,35.86,0,0,0-3.32-2.95,112.69,112.69,0,0,1-12.25-11.38,73.19,73.19,0,0,1-10.78-14.72,46,46,0,0,1-5.8-18.68,33.79,33.79,0,0,1,1.46-12.49,3.83,3.83,0,0,1,.75-1.37c1.34-1.54,2.67-3.1,4-4.65a2.5,2.5,0,0,1,.27-.29,1.19,1.19,0,0,1,1.18-.39c.52.1,1,.2,1.54.33l7.08,1.85a31.27,31.27,0,0,0,9.19,1c.4,0,.78-.05,1.17-.09a1,1,0,0,0,.91-.63c.17-.37.32-.72.47-1.08.52-1.25,1-2.5,1.56-3.74.34-.76.54-.85,1.32-.68s1.69.45,2.54.62c.33.08.64.32,1,.14-.06-.51-.52-.51-.84-.65-.52-.23-1.06-.38-1.59-.58a9.51,9.51,0,0,1-1.08-.47c-.56-.32-.7-.6-.51-1.18.79-2.2,1.47-4.48,3.2-6.21a1.48,1.48,0,0,0,.43-1.32c-.07-.48-.15-.94-.22-1.42-.11-.73-.22-1.46-.31-2.19a1.44,1.44,0,0,0-1.19-1.37c-.34-.08-.68-.19-1-.27-2.68-.61-5.36-1.2-8-1.82a49.08,49.08,0,0,1-8-2.38,18.61,18.61,0,0,1-4.08-2.3c-1.37-1-1.19-1.18-.75-2.4a.42.42,0,0,1,0-.12,30.84,30.84,0,0,0,1.54-13.51c-.17-2.29-.33-4.59-.55-6.89a1.45,1.45,0,0,1,.89-1.56c2-1,4-2.12,6.09-3a23.72,23.72,0,0,1,3.19-1.14,5.58,5.58,0,0,1,1.81-.25c1.7.05,3.39.09,5.09.16,1.2.06,1.32-.07,1.24-1.32-.16-2.87-.3-5.73-.42-8.6-.05-1.4,0-1.42,1.38-1.74a15.06,15.06,0,0,0,4.26-1.62,13.84,13.84,0,0,0,1.5-1,1.13,1.13,0,0,0,.45-.91,9.59,9.59,0,0,0-.36-2.32.5.5,0,0,0-.65-.29l-.36.15q-4.19,2.33-8.35,4.63a1.55,1.55,0,0,0-.89,1.47c0,.87,0,1.74,0,2.61a34.34,34.34,0,0,0,.53,4.53c.24,1.53.11,1.71-1.38,1.77a45.92,45.92,0,0,0-5.59.61,36.48,36.48,0,0,0-6.59,1.63,14.07,14.07,0,0,0-3.38,1.69,5.35,5.35,0,0,0-2.11,2.75,14.94,14.94,0,0,0-.75,3.42,57.36,57.36,0,0,0-.27,6c0,1.48,0,3,0,4.43a27.89,27.89,0,0,1-.74,5.68,11,11,0,0,1-1.51,3.45,2.05,2.05,0,0,1-1.36.93,2.67,2.67,0,0,0-1.15.46ZM176.24,32.61a1.42,1.42,0,0,0,0-.36c-.25-1.24-.48-2.48-.75-3.7a16.24,16.24,0,0,0-1.5-4.17A9.14,9.14,0,0,0,169,20a15.62,15.62,0,0,0-4.34-.91,5.47,5.47,0,0,0-2.57.2c-1.58.63-3.17,1.22-4.74,1.85A15.78,15.78,0,0,0,154.05,23a8.75,8.75,0,0,0-2.25,2.33,5.45,5.45,0,0,0-.33.58.41.41,0,0,0,.35.57,4.62,4.62,0,0,0,.65.05l4,.31c.52.05,1,.13,1.55.22a.53.53,0,0,1,.46.56,1.19,1.19,0,0,1-.94,1.37,8.72,8.72,0,0,1-1.27.31l-5.3.77a12.62,12.62,0,0,0-3,.74c.14.4.5.41.73.59a3.7,3.7,0,0,1,1,1,.45.45,0,0,1-.3.71c-.38.09-.77.11-1.16.18-1,.18-1.23.45-1.29,1.48,0,.18,0,.35,0,.53,0,.71.16,1,.83,1.13a33.21,33.21,0,0,1,5.39,2,15.08,15.08,0,0,0,4.26,1.18,4.26,4.26,0,0,1,.64.13.62.62,0,0,1,0,1.18,13.59,13.59,0,0,1-1.4.34c-2.39.47-4.79.9-7.19,1.36a7.71,7.71,0,0,0-1,.27.55.55,0,0,0-.38.62c.18,1.21.38,2.4.61,3.61a1,1,0,0,0,.91.8l.39.06c2.46.35,4.92.69,7.37,1.05.95.14,1.9.28,2.84.47.57.11.67.45.34,1a2.11,2.11,0,0,1-1.58,1,15.46,15.46,0,0,1-3.9.15,41.13,41.13,0,0,0-4.83-.18,7.67,7.67,0,0,0-1.17.08.83.83,0,0,0-.81.87c0,.6,0,1.21,0,1.83a1.26,1.26,0,0,0,.68,1.18,12.69,12.69,0,0,1,2.5,1.88,30.81,30.81,0,0,1,2.38,2.6c.77.94,1.56,1.87,2.4,2.76a10.24,10.24,0,0,0,4.11,2.7,2.12,2.12,0,0,1,1.34,1c.19.36.63.45,1,.57,1.29.41,2.58.82,3.87,1.18a24.8,24.8,0,0,0,4.9.8,25.66,25.66,0,0,0,10-1.41,8.78,8.78,0,0,0,.85-.33.92.92,0,0,0,.58-.94,11.31,11.31,0,0,0-.06-1.17c-.07-.78-.17-1.55-.23-2.33-.1-1.21-.17-2.43-.27-3.64-.07-.71-.33-.94-1-.84-.52.06-1,.17-1.55.26-1.2.21-2.4.42-3.61.6-.27,0-.65.12-.76-.28s.19-.56.42-.74a1.62,1.62,0,0,1,.45-.28c1.67-.6,3.24-1.55,5.12-1.33.5,0,.67-.19.71-.72,0-.08,0-.17,0-.26,0-1.65.07-3.3.06-4.95a31.23,31.23,0,0,1,.6-6.75c.2-.94.12-1.06-.77-1.54-.11-.07-.24-.11-.35-.18a8.23,8.23,0,0,1-3.52-3.56,18.45,18.45,0,0,1-1-2.54c-.23-.69-.17-1.56-.78-2a11.47,11.47,0,0,0-2-1l-.12,0a8.12,8.12,0,0,0-5.88-.23c-.7.24-1.39.51-2.06.81-1.27.58-2.51,1.2-3.77,1.8-.32.15-.65.27-1,.38a.27.27,0,0,1-.23-.09.29.29,0,0,1,0-.24,4.37,4.37,0,0,1,1.83-2.13c1.53-.73,3.05-1.51,4.57-2.27a3.66,3.66,0,0,1,1.77-.41c.48,0,1,0,1.44,0a7.65,7.65,0,0,1,4.87,2,.34.34,0,0,0,.42.17ZM1.38,373.44a2.33,2.33,0,0,0,.73.88c.69.66,1.4,1.3,2.1,1.95a7.45,7.45,0,0,1,.59.69c.11.14,0,.36-.2.39a3,3,0,0,1-1-.09c-.72-.12-1.46-.26-2.19-.34a.69.69,0,0,0-.84.63c-.11.86-.19,1.73-.26,2.6a1.08,1.08,0,0,0,.81,1.18l.73.28c13.23,4.76,26.48,9.5,39.8,14.06,8.2,2.81,16.42,5.58,24.73,8,2.34.69,4.68,1.36,7.09,1.82a4.56,4.56,0,0,0,1.16.11c2.65-.26,5.3-.32,8-.34,7.85,0,15.69,0,23.53,0,.48,0,1,0,1.44,0,.16,0,.37,0,.42-.32-.38-.15-.76-.32-1.16-.46-5-1.7-9.89-3.43-14.84-5.1-16.75-5.66-33.52-11.28-50.38-16.65-8.91-2.85-17.85-5.67-26.85-8.28-3.81-1.1-7.62-2.19-11.48-3.07-.35-.08-.68-.14-1-.19a.27.27,0,0,0-.29.34,1.33,1.33,0,0,0,.1.24c.62,1.22.62,1.22-.65,1.69ZM186.82,160.18c0-.78,0-1.57,0-2.35a4.91,4.91,0,0,0-.1-.77c-.37-2-.45-2.14-2.32-2.91-2.5-1-5-2-7.53-3-.72-.28-1.44-.62-2.17-.89-.57-.22-.8-.09-1,.47l-.06.25c-.93,3.4-2.12,6.72-3.27,10-2,5.7-4,11.42-6,17.12-.31.87-.54,1.75-.81,2.63a2.06,2.06,0,0,0,.26,1.86c.29.43.55.89.83,1.32.76,1.11,1.53,2.23,2.33,3.31a52.58,52.58,0,0,1,5.35,8.8c.85,1.86,1.82,3.67,2.74,5.49.51,1,.63,1,1.62.66l.13,0,18.79-7.51a5.79,5.79,0,0,0,.71-.34.8.8,0,0,0,.42-.88,6.42,6.42,0,0,0-.29-1,12.35,12.35,0,0,0-2.37-3.88q-1.51-1.71-3.12-3.34a24.62,24.62,0,0,1-3-3.62,13.62,13.62,0,0,1-2.22-7.13,43.81,43.81,0,0,1,.44-7.15,46.51,46.51,0,0,0,.6-7.15ZM4.47,332.82h0c0,.44,0,.87,0,1.31,0,1.08.13,1.21,1.19,1.57.28.11.58.19.87.28l25.71,8,18.22,5.66c.38.12.76.22,1.14.31a.23.23,0,0,0,.27-.32c-.1-.25-.22-.48-.33-.71-.3-.64-.29-.79.22-1.25A15.49,15.49,0,0,1,54.08,346a48.37,48.37,0,0,1,5.11-2.64,57.08,57.08,0,0,0,5.81-3,17.39,17.39,0,0,0,3.62-2.77,9.73,9.73,0,0,0,2.47-3.95,10.44,10.44,0,0,0,.4-1.65,1.41,1.41,0,0,0-1-1.77c-.78-.37-1.59-.69-2.39-1.05-1.5-.66-1.53-.74-1.13-2.38a25.62,25.62,0,0,1,2.37-6.05,58.78,58.78,0,0,1,5.38-8c.67-.86,1.33-1.73,2-2.57a2.09,2.09,0,0,0,.5-1.7l-.09-.78a2.28,2.28,0,0,0-1-1.73c-1-.68-2-1.4-3-2.12-2.33-1.68-4.69-3.33-7-5.06a46.55,46.55,0,0,1-9.29-9.15c-1.45-1.89-3-3.75-4.52-5.59a44.37,44.37,0,0,0-3.8-4,1.54,1.54,0,0,0-1.9-.33c-1,.5-2.06.93-3.07,1.46A187.79,187.79,0,0,0,26.74,291.4a58,58,0,0,0-5.85,4.39c-.52.46-.93.37-1.28-.2a2,2,0,0,1-.17-.36A21.56,21.56,0,0,0,16.91,291c-.51-.7-1-1.42-1.47-2.15a12.44,12.44,0,0,1-1.5-3.32c-.38-1.37-.34-1.51.91-2.16a79.54,79.54,0,0,0,9.93-6.29c2-1.49,4.08-3,6.12-4.46a68.15,68.15,0,0,1,11.83-7.14l.36-.18c.58-.32.67-.5.53-1.16-.27-1.18-.58-2.37-.83-3.55a163.7,163.7,0,0,1-3.21-24l-.3-4.69c-.14-2.6-.32-5.21-.43-7.82-.14-3.29-.22-6.61-.33-9.92,0-.13,0-.26,0-.39s0-.38-.2-.46-.32.09-.41.23c-.34.52-.66,1-1,1.56a3.42,3.42,0,0,0-.5,2.12c.07.83.07,1.66.07,2.48q.07,11.1.13,22.2a23.85,23.85,0,0,0,1.23,7.95c.67,2,1.26,4,1.76,6a27,27,0,0,1,.76,5.43,18.54,18.54,0,0,1-.15,2.35,1.06,1.06,0,0,1-.77.95l-.5.18a45.82,45.82,0,0,0-6.35,2.76,113.22,113.22,0,0,0-18.91,12.32c-.78.63-1.49,1.35-2.28,2a1.82,1.82,0,0,0-.6,2.41c.39.92.72,1.86,1.13,2.78a110.51,110.51,0,0,0,5.17,10c.37.64.79,1.25,1.17,1.89a1.73,1.73,0,0,0,2.11.82A5.71,5.71,0,0,0,24,297.35a14.73,14.73,0,0,1,4.57-4c.42-.25.81-.52,1.22-.77,3.65-2.3,7.43-4.36,11.26-6.36,1.74-.91,3.5-1.76,5.24-2.68a2,2,0,0,1,2.1,0,17.46,17.46,0,0,1,1.54,1A15.13,15.13,0,0,1,53,287.81q1.32,1.79,2.56,3.63a26.26,26.26,0,0,0,3.18,3.8A48.16,48.16,0,0,0,64.63,300c1.94,1.39,3.9,2.78,5.81,4.23a30.78,30.78,0,0,1,2.66,2.31c1.15,1.1,1.14,1.13.19,2.34L71,311.75c-1.19,1.5-2.36,3-3.4,4.62A23.89,23.89,0,0,0,64,325.12c-.17.89-.25,1.81-.4,2.71a1.63,1.63,0,0,0,1.08,2c.57.25,1.08.58,1.63.86.3.16.62.32.91.51.48.32.52.59.23,1.11a5.07,5.07,0,0,1-.36.54,19,19,0,0,1-2.37,2.62,34.85,34.85,0,0,1-6,4.15,73.26,73.26,0,0,0-9.14,5.56,1.15,1.15,0,0,1-1.23.17l-1-.39c-2.5-1-5-1.95-7.6-2.81-5-1.66-10.07-3.11-15.13-4.61a166.08,166.08,0,0,1-19-6.57l-.36-.15c-.54-.18-.76,0-.79.49s0,1,0,1.55ZM121.39,111.71h0c0,.31,0,.62,0,.91,0,.92.24,1.09,1.1.91.6-.13,1.19-.3,1.78-.44a92.85,92.85,0,0,1,17.9-2.92,73.45,73.45,0,0,1,12.14.26c3.9.4,7.79.92,11.67,1.4.91.11,1.82.22,2.73.29a.92.92,0,0,0,1.14-.64c.06-.12.09-.25.14-.37a47.34,47.34,0,0,1,3.11-6.61c.59-1.08,1.14-2.15,1.68-3.25a20.09,20.09,0,0,0,1.84-6,4.84,4.84,0,0,0,.05-1.42.37.37,0,0,0-.49-.3,7.75,7.75,0,0,0-.83.37c-.83.4-1.64.81-2.48,1.19-3.49,1.58-7.08,2.94-10.7,4.22-3.29,1.17-6.6,2.24-10,3.11a3.84,3.84,0,0,1-3.34-.6,18.42,18.42,0,0,1-2.42-2,41.48,41.48,0,0,1-5.67-7l-.86-1.3a2.68,2.68,0,0,0-2.33-1.22,7.46,7.46,0,0,0-1.94.22A15.72,15.72,0,0,0,132,92c-1.8,1-3.56,2-5.34,3a2.28,2.28,0,0,0-.89.93,54.44,54.44,0,0,1-3.18,4.93c-1.36,2-2.73,4-3.94,6.16a33.82,33.82,0,0,0-2.54,5.29,19.83,19.83,0,0,0-.67,2.24c-.2.8,0,1,.76.78.42-.11.82-.27,1.25-.37a2.2,2.2,0,0,0,1.62-1.38c.34-.8.71-1.59,1.08-2.38a2.84,2.84,0,0,1,.6-1,.34.34,0,0,1,.59.16c0,.42.06.86.1,1.29Zm18,31c-.91.07-1.84.09-2.74.21a35.83,35.83,0,0,0-11.2,3.42c-.23.13-.47.25-.67.38a.59.59,0,0,0-.23.89c.11.2.23.38.34.57.54.89,1.08,1.79,1.61,2.69A33.12,33.12,0,0,1,131,167.07a57.81,57.81,0,0,1-.89,10.51c-.11.6-.23,1.2-.32,1.81a.38.38,0,0,0,.45.47c.26-.06.51-.14.76-.21l6.48-2c2.41-.75,4.81-1.54,7.24-2.25a2.89,2.89,0,0,0,2.14-2c.79-2.3,1.74-4.56,2.57-6.84,2.31-6.29,4.47-12.63,6.95-18.87a6.5,6.5,0,0,0,.22-.62.77.77,0,0,0-.44-1.08,20.4,20.4,0,0,0-3.37-1.38,54.18,54.18,0,0,0-7.68-1.57,27.62,27.62,0,0,0-5.74-.27Zm75.91,92.5c.55.07.69-.12.54-.53-.09-.24-.21-.48-.32-.71q-3.33-7.08-6.68-14.17a45.56,45.56,0,0,1-2.91-7.39,26.41,26.41,0,0,0-.95-2.57,7,7,0,0,0-1-1.68,1.1,1.1,0,0,0-1.38-.4c-.38.14-.74.27-1.1.42l-26.83,11c-.29.12-.57.25-.85.35a1.23,1.23,0,0,0-.92,1.39c.09,1.34.16,2.7.25,4a.93.93,0,0,0,.77.92c.42.13.84.23,1.27.33q18.62,4.2,37.2,8.36c1,.24,2,.47,2.92.66Zm-16.15,140.5v-1.31c0-.18,0-.35,0-.53-.08-.87-.3-1.15-1.13-1.36a5.1,5.1,0,0,0-.77-.11,9,9,0,0,0-3.49.37c-.82.27-1.66.53-2.48.82a7.08,7.08,0,0,1-3.48.28c-1.64-.24-3.29-.41-4.92-.61a5.35,5.35,0,0,0-1.44,0c-1.72.28-3.44.55-5.16.79a55.55,55.55,0,0,1-9.9.68,22.69,22.69,0,0,1-4.27-.55,11.76,11.76,0,0,1-5.26-2.78,20.09,20.09,0,0,1-2.29-2.5,55.67,55.67,0,0,1-3.11-4.67c-1.06-1.71-2.12-3.4-3.25-5.06a19.14,19.14,0,0,0-4.86-5.05,14.11,14.11,0,0,0-6.67-2.47,1,1,0,0,0-1.15.64c-.34.75-.67,1.51-1,2.25a46.74,46.74,0,0,0-4.84,19.61,3.89,3.89,0,0,1-.11.9.54.54,0,0,1-.66.48,9.07,9.07,0,0,1-1-.21,4.59,4.59,0,0,0-1.43-.08c-.52.06-.79.29-.83.68a.74.74,0,0,0,.55.79c.41.17.82.31,1.23.44q16,5.16,32,10.34l32.95,10.66c1.57.52,1.63.5,2.12-1.06a129.87,129.87,0,0,0,3.83-14.23,39.85,39.85,0,0,0,.93-7.19ZM66.52,137.29a17.81,17.81,0,0,0,3.64-.34,14.75,14.75,0,0,0,9.4-5.43,9.17,9.17,0,0,0,1.19-1.86,4.5,4.5,0,0,0,.41-1.37c.06-.72-.24-1.1-1-1.1a7.45,7.45,0,0,0-1.56.17c-1.4.31-2.8.67-4.2,1a17.72,17.72,0,0,1-1.79.36c-.85.12-1.44-.05-1.37-.38.11-.52.62-.58,1-.73,1.9-.79,3.79-1.57,5.69-2.33.4-.17.8-.33,1.19-.53.64-.33.79-.62.59-1.26-.29-.86-.64-1.72-1-2.57a.71.71,0,0,0-.73-.44,3,3,0,0,0-.65.09c-1,.26-2.12.49-3.17.79-1.46.42-2.92.87-4.36,1.36a3.45,3.45,0,0,1-2.5-.41c-.18-.07-.32-.29-.45-.46a.47.47,0,0,1,.15-.68,3.52,3.52,0,0,1,.57-.31c1.24-.54,2.49-1.06,3.74-1.58a1.89,1.89,0,0,1,1.26-.2.84.84,0,0,0,.64,0,34,34,0,0,1,3.35-1.43,1.23,1.23,0,0,0,.87-1.42c-.11-1.12-.18-2.25-.31-3.38s-.41-1.32-1.56-.93c-2,.66-3.86,1.34-5.81,2a8.16,8.16,0,0,0-2.2,1.12c-.77.57-1.56,1.11-2.34,1.67-.25.18-.5.35-.76.51s-.41.26-.6,0,0-.42.06-.61a7.54,7.54,0,0,1,.47-.77,9.31,9.31,0,0,1,2-2.1c.75-.6,1.53-1.16,2.26-1.77.47-.39.92-.79,1.36-1.22a1.11,1.11,0,0,0,.33-1.07c-.16-.9-.28-1.82-.42-2.72s-.61-1.1-1.39-.7a7,7,0,0,0-1.09.71c-6.59,4.94-9.73,11.65-10.18,19.74a2.76,2.76,0,0,0,.6,1.82c1.37,1.9,2.72,3.83,4.07,5.76.5.71,1,1.41,1.48,2.15a1.73,1.73,0,0,0,1.64.86c.5,0,1,0,1.46,0ZM51.36,405.22a7.79,7.79,0,0,0-1.89-.89Q33.59,398,17.61,391.83c-5.11-2-10.25-3.91-15.42-5.73-.46-.16-.9-.31-1.37-.43s-.84.16-.82.69a1.16,1.16,0,0,0,.34.82c.4.38.33.7,0,1.12s-.21.69.25.91c.2.1.42.15.62.25a9.65,9.65,0,0,1,1.14.62c.8.61.86,1,.39,1.88a1,1,0,0,1-.83.55c-.35,0-.69.05-1,.1a.73.73,0,0,0-.57.49,1.76,1.76,0,0,0,.53,2c.19.16.4.33.58.51a.37.37,0,0,1-.12.64c-.24.11-.5.17-.73.26a.34.34,0,0,0-.07.62,2.7,2.7,0,0,0,.67.4c.41.16.82.27,1.24.4L25.77,405a10.2,10.2,0,0,0,3,.44c4.53,0,9.05,0,13.59,0,2.74,0,5.48-.07,8.23-.12l.81-.1ZM213.09,131.57l.14-.11c-.17-.33-.33-.66-.51-1-3.47-6.14-7-12.26-10.6-18.3-3.21-5.34-6.52-10.6-10.23-15.61-.23-.31-.46-.63-.71-.92s-.6-.31-.77.15c-.12.29-.2.59-.29.86l-4.4,13.4c-.61,1.82-1.23,3.63-1.84,5.44-.33,1-.12,1.56,1,1.76a33.76,33.76,0,0,1,6.85,2.13,98.74,98.74,0,0,1,20.32,11.47l1,.73Zm42.13,166.35a1.81,1.81,0,0,0,.43-1q1.61-6.12,3.19-12.24c.51-1.93.51-1.94,2.34-1.32,2.06.7,4.11,1.42,6.17,2.13,1.49.52,1.51.59.89,2-.8,1.88-1.63,3.75-2.41,5.64a45.17,45.17,0,0,0-2.58,7.94c-.25,1.23-.44,2.48-.63,3.73a2.17,2.17,0,0,0,.31,1.75.5.5,0,0,0,.43.27.42.42,0,0,0,.38-.3c.14-.42.28-.82.4-1.25q2.53-8.76,5.07-17.56c.11-.38.21-.75.35-1.12a.62.62,0,0,1,.81-.45c.38.09.75.22,1.13.35l10.22,3.6c.33.12.65.24,1,.34s.74-.09.81-.59a4.64,4.64,0,0,0,0-.65c0-1.38,0-2.78,0-4.17a9.69,9.69,0,0,0-.19-1.42,2,2,0,0,0-1.72-1.85,3.58,3.58,0,0,1-.63-.21l-21.41-6.83c-1.16-.37-2.31-.74-3.48-1.09-.63-.18-.88-.07-1.15.52a22.47,22.47,0,0,0-1.62,4.27,9.65,9.65,0,0,0-.2,1c-.11,1.13,0,1.37,1.06,1.79s1.8.67,2.69,1c.28.11.57.21.84.34a.77.77,0,0,1,.5,1.05c-.07.34-.18.67-.28,1l-1.59,5a29.73,29.73,0,0,0-1.32,6.25,4.64,4.64,0,0,0,.18,2.08ZM252.78,15.31A7.53,7.53,0,0,0,251,14.1c-.78-.38-1.57-.75-2.38-1.06-2.45-.93-4.86-1.92-7.28-2.93a45.17,45.17,0,0,0-7.19-2.37,25.09,25.09,0,0,0-14,.57c-1.45.5-2.89,1-4.33,1.49a51.29,51.29,0,0,1-7.28,2.1,20.91,20.91,0,0,1-7.4.18c-4.17-.68-8.3-1.59-12.42-2.51-6.5-1.49-13-3-19.58-3.95a88.08,88.08,0,0,0-12.76-1,5.94,5.94,0,0,0-2.17.38,54.24,54.24,0,0,1-7.41,2.06c-2.34.51-4.69,1-7,1.56a19,19,0,0,0-5.33,2.1c-.16.09-.42.14-.34.5l1-.44a30.85,30.85,0,0,1,6-2.12,44.79,44.79,0,0,1,9.44-1.21c2.35-.07,4.69,0,7.06.17,2.95.2,5.9.54,8.82.95,5.27.74,10.47,1.82,15.67,2.88,4.91,1,9.8,2.1,14.75,2.88a10.34,10.34,0,0,0,3.51,0c2.48-.42,5-.78,7.48-1.19,4.68-.74,9.38-1.48,14.05-2.24a30.71,30.71,0,0,1,7.41-.53c2.25.19,4.5.46,6.73.84a124.36,124.36,0,0,1,15.47,3.83,2.86,2.86,0,0,0,1.34.25Zm-31.32,372c-.09-.55-.16-1.12-.29-1.66a13.94,13.94,0,0,0-2.23-4.68c-.43-.61-.63-.65-1.31-.24a30.92,30.92,0,0,1-8.46,3.37c-.51.13-1,.28-1.53.36a1.62,1.62,0,0,0-1.4,1.34c-.71,2.65-1.68,5.23-2.55,7.82a5.41,5.41,0,0,0-.2.61c-.14.53,0,.74.51.82l1.82.25a11.24,11.24,0,0,1,4.06,1.38,3,3,0,0,1,1.08.93.73.73,0,0,1,0,.74.6.6,0,0,1-.64.35c-.48-.07-.95-.15-1.42-.25L203,397.18a7.37,7.37,0,0,0-.77-.14.83.83,0,0,0-.88.45c-.23.42-.45.84-.64,1.28-.29.71-.17,1,.55,1.12.25.07.52.09.77.14a.88.88,0,0,0,1-.44,1.49,1.49,0,0,1,2.25-.34,2.56,2.56,0,0,1,1.11,2c.14,1.53.28,1.61,1.62,2a11.79,11.79,0,0,1,4.47,2.38c.5.43,1,.85,1.5,1.26a5.37,5.37,0,0,0,.73.55.75.75,0,0,0,1.13-.47,7.28,7.28,0,0,0,.14-1c.17-1.83.13-3.65.42-5.47.64-4.14,1.79-8.06,4.47-11.4a2.41,2.41,0,0,0,.59-1.68Zm-71-292.37a11.44,11.44,0,0,0,4.24-.87,20,20,0,0,0,2.91-1.49c2.23-1.36,4.3-3,6.62-4.2a2.06,2.06,0,0,0,.8-.83c.15-.26.17-.52-.09-.69a3,3,0,0,1-1.13-2.12,9.13,9.13,0,0,1-.07-2.86,23.94,23.94,0,0,1,1.17-4.95,8.59,8.59,0,0,0,.32-1.13.42.42,0,0,0-.33-.49c-.25-.06-.52-.07-.77-.12a31.05,31.05,0,0,1-4-.56,6,6,0,0,0-2.72-.09l-1.16.2-3,.51a1.19,1.19,0,0,0-1,.87c-.07.21-.15.41-.21.61a89.82,89.82,0,0,0-3.37,16.47,4.73,4.73,0,0,0,0,.65.88.88,0,0,0,.83,1,6.28,6.28,0,0,0,1,.11ZM113.18,210.11c0-.42,0-1-.07-1.54a1.48,1.48,0,0,0-1.09-1.46c-.29-.09-.57-.21-.86-.31l-3.72-1.24-31.86-10.2-2.85-.93c-.84-.27-1-.14-1.08.69s0,1.75,0,2.62a1.34,1.34,0,0,0,1,1.39c1.14.42,2.26.88,3.41,1.3q8.94,3.15,17.87,6.29c5.88,2.06,11.77,4.1,17.59,6.31a6.5,6.5,0,0,0,.62.22c.49.14.7,0,.84-.53a13.81,13.81,0,0,0,.26-2.61ZM148,302l.46-.06a76.6,76.6,0,0,0,9.17-1.4,46.59,46.59,0,0,0,7-2.08,6.67,6.67,0,0,0,.93-.45.55.55,0,0,0,.25-.68,3.56,3.56,0,0,0-.25-.61,71.86,71.86,0,0,0-7.34-12.16,26.53,26.53,0,0,0-2.67-3c-.75-.72-1-.68-1.37.28-1.95,5-4,10-5.7,15.15-.39,1.16-.69,2.34-1,3.5a4.83,4.83,0,0,0-.15.9c0,.4.22.64.69.65ZM13.18,256.37l1.18-.08A1.59,1.59,0,0,0,16,254.92a6.29,6.29,0,0,1,.17-.62c2.14-7.07,4.32-14.14,6.68-21.15,2-5.89,4-11.78,6.5-17.49a24.14,24.14,0,0,0,1-3.1c.14-.49,0-.85-.46-.92a17,17,0,0,0-2.85-.36,1.24,1.24,0,0,0-1.29.89c-.29.86-.62,1.72-.9,2.59-4.41,13.43-8.64,26.92-12.89,40.4-.07.25-.16.5-.21.75s.06.51.4.51.62,0,1-.05ZM241.08,21.23c-.05-.43-.35-.47-.57-.58a18.37,18.37,0,0,0-3.69-1.3,31.72,31.72,0,0,0-9.61-.72A112.45,112.45,0,0,0,215.8,20c-4.51.74-9,1.5-13.59,1.84a36.55,36.55,0,0,1-6,0,60.84,60.84,0,0,1-6.44-1.05c-5-1-9.84-2.33-14.72-3.63a139,139,0,0,0-17.11-3.69,74.81,74.81,0,0,0-10-.73,4.77,4.77,0,0,0-1.8.3c-2.31.92-4.64,1.8-6.94,2.73a26,26,0,0,0-3.62,1.81,14.68,14.68,0,0,0-6.26,7.62c-.29.73,0,1.19.81,1.26a.93.93,0,0,0,1-.47l.29-.59a15.31,15.31,0,0,1,3.51-4.67,24.33,24.33,0,0,1,9.83-5.51,20.73,20.73,0,0,1,10.08-.41c7.25,1.54,14.5,3,21.76,4.53l20,4.14a25.18,25.18,0,0,0,7.55.32,44.22,44.22,0,0,0,8.06-1.59c2.77-.78,5.53-1.59,8.31-2.34a26.38,26.38,0,0,1,10.76-.55c2.73.39,5.4,1,8.08,1.55l1.79.35ZM22.22,211.05l.21,0c.26-1,.51-1.92.77-2.89.13-.46.25-.91.42-1.37a.61.61,0,0,1,.8-.47,8.56,8.56,0,0,1,1.13.31c2.28.7,4.57,1.43,6.85,2.14.33.1.67.21,1,.28a.48.48,0,0,0,.66-.44c0-.26,0-.53,0-.78,0-1.31,0-2.61,0-3.92,0-1.5-.06-1.58-1.48-2l-25-7.56c-.3-.09-.59-.16-.88-.22a.58.58,0,0,0-.68.46,4.09,4.09,0,0,0,0,.78c0,1,0,2,.07,3,.09,1.63.2,1.77,1.79,2.27L21.8,205.1c1.71.55,1.71.56,1.29,2.29-.3,1.22-.58,2.43-.87,3.66Zm56.94-24.11a13.32,13.32,0,0,0,.17,2.6,2.17,2.17,0,0,0,2,2c2,.29,3.94.72,5.92,1a69.5,69.5,0,0,1,9.69,2.14c3.08,1,6.17,1.88,9.25,2.83.38.11.75.21,1.13.3a1.11,1.11,0,0,0,1.15-.44,1.77,1.77,0,0,0,.41-.95c.32-2.45.62-4.91.94-7.37a1.88,1.88,0,0,0-.34-1.36c-.4-.57-.78-1.15-1.19-1.71-4.67-6.2-9.66-12.12-14.91-17.83-.76-.84-1.58-1.63-2.39-2.41a7.29,7.29,0,0,0-.81-.66.22.22,0,0,0-.34,0,.37.37,0,0,0,0,.35,7.22,7.22,0,0,0,.71.75,28.65,28.65,0,0,1,3.51,4c1.32,1.79,2.51,3.67,3.72,5.53,1.1,1.67,2.19,3.35,3.35,5a23.38,23.38,0,0,0,5.61,5.79,1.93,1.93,0,0,1,.88,1.88,23.34,23.34,0,0,1-.94,5.12c-.28.86-.47,1-1.32.86-.39-.06-.77-.14-1.16-.22l-14.48-2.85c-2.31-.46-4.62-.9-6.93-1.38-1.39-.29-1.45-.4-1.42-1.84a12.13,12.13,0,0,1,.11-1.7,31.44,31.44,0,0,1,.85-4.08A60,60,0,0,1,84.69,176c.81-2,1.66-3.92,2.32-5.95a17.06,17.06,0,0,0,.76-2.91,2,2,0,0,0,0-.77.7.7,0,0,0-.51-.56c-.3-.08-.49.12-.63.36a5,5,0,0,0-.24.46c-1.13,2.35-2.27,4.7-3.38,7.06a54.36,54.36,0,0,0-2.41,5.92,24.37,24.37,0,0,0-1.47,7.29Zm20.91-29.64c-.22,0-.32,0-.38.16s-.26.56-.41.82a3.24,3.24,0,0,1-2.52,1.84c-.13,0-.26,0-.39,0a.4.4,0,0,0-.34.58,10.4,10.4,0,0,0,.54,1.05c1.08,1.74,2.11,3.5,3.27,5.18,5.22,7.67,10.9,15,16.8,22.13a6.37,6.37,0,0,0,.7.76.67.67,0,0,0,1,.07,8.87,8.87,0,0,0,.94-.89c1-1.14,1-1.17.19-2.45q-9.24-14.13-18.52-28.26c-.2-.29-.39-.58-.6-.85a.62.62,0,0,0-.23-.19Zm150-127.53c-1.56-.49-3.09-1-4.6-1.56s-3-1.14-4.54-1.68a32.12,32.12,0,0,0-7.08-1.8,20,20,0,0,0-11.32,1.74c-1.1.53-2.17,1.11-3.26,1.69-1.62.85-3.21,1.77-4.84,2.58a23.17,23.17,0,0,1-5.63,2.05,13.5,13.5,0,0,1-8.09-.55c-3-1.18-6-2.26-9-3.38q-6.19-2.31-12.38-4.59a2,2,0,0,0-1.08-.26c-.14.26,0,.44.11.62a9.44,9.44,0,0,0,3.28,3.48,18,18,0,0,0,2.8,1.42l7.15,2.9a53.73,53.73,0,0,0,8,2.52,23.26,23.26,0,0,0,8.44.22,31.67,31.67,0,0,0,8.44-2.72c1.95-.89,3.86-1.84,5.79-2.74a44.65,44.65,0,0,1,6.44-2.54,17.3,17.3,0,0,1,7.37-.5,47.65,47.65,0,0,1,6.22,1.48c1.54.44,3.09.9,4.66,1.29a6.93,6.93,0,0,0,3.21.33ZM222.11,243.85c0-1.12-.31-1.56-1.23-1.9-.32-.12-.66-.23-1-.33-7-2.22-14-4.34-21-6.31q-13.15-3.65-26.53-6.4c-1.43-.3-1.48-.26-2,1.09-.4,1-.3,1.2.72,1.48l.26.06c4.67,1,9.3,2.29,13.92,3.53q17.41,4.68,34.74,9.65c.38.11.75.23,1.13.3a.71.71,0,0,0,.9-.54c.06-.25.08-.5.1-.63ZM49.82,272.65a9.56,9.56,0,0,0-.89-2.6c-.41-.75-.79-.85-1.63-.5a4.6,4.6,0,0,0-.59.29c-5.14,2.56-10.25,5.18-15.3,7.92-2.68,1.45-5.34,2.93-7.9,4.59-.62.41-1.22.84-1.81,1.29a.59.59,0,0,0-.17.81c.39.73.77,1.47,1.17,2.19s.62,1.15,1,1.71.53.55,1,.33.93-.49,1.37-.75l9.89-6.1c4.33-2.68,8.6-5.46,13-7.93a6.48,6.48,0,0,0,.57-.33c.24-.18.35-.39.31-.92Zm116.4-126.84-.8.06c-1.86.2-1.83-.08-2.58,1.95q-4.62,12.48-9.26,24.94c-.32.86-.61,1.73-.94,2.58a1.08,1.08,0,0,0,.32,1.3,21.49,21.49,0,0,0,2.79,2.14c1.26.79,1.43.39,1.68-.66.56-2.33,1.27-4.61,2-6.87,1.81-5.17,3.65-10.33,5.46-15.49q1.47-4.19,2.91-8.38c.41-1.15.34-1.51-1.14-1.56Zm91.64,38.54c.18-.32.1-.67.44-.73a.87.87,0,0,1,.7.28,1.41,1.41,0,0,1,.48.9c.17.85.36,1.7.47,2.56.37,3,.69,6,1.07,8.93a16.16,16.16,0,0,0,.51,2.83.39.39,0,0,0,.62.23c.65-.45,1.26-.93,1.94-1.34a2,2,0,0,0,1-2,39.77,39.77,0,0,0-.64-5.44c-.65-3.51-1.73-6.91-2.55-10.38l0-.13c-.15-.43-.45-.56-.8-.33s-.5.35-.74.52c-1.05.78-2.09,1.58-3.14,2.35a6.12,6.12,0,0,1-1,.63.88.88,0,0,1-1.28-.5c-.11-.24-.17-.49-.28-.72a.49.49,0,0,0-.75-.27,3.45,3.45,0,0,0-.63.45c-.89.76-1.8,1.52-2.67,2.3s-.85.88-.45,1.92c0,.12.1.24.16.36a42.42,42.42,0,0,1,2.21,7.08c.28,1.31.53,2.62.78,3.94a2.61,2.61,0,0,0,.28-.13c.6-.44.9-.12,1,.46s.16,1.3.26,1.94a.44.44,0,0,0,.68.36c.7-.35,1.38-.72,2.06-1.11a1,1,0,0,0,.49-1,6,6,0,0,0-.07-.64c-.18-1.11-.38-2.23-.57-3.34-.51-3-1-6-1.52-9a6,6,0,0,1-.09-1,.52.52,0,0,1,.52-.49,2.55,2.55,0,0,1,1.6.49ZM174.07,295.14a4.26,4.26,0,0,0-.25-.63l-1.12-2.21-10.87-21.87c-.2-.39-.4-.77-.62-1.15a.62.62,0,0,0-.68-.31,8.05,8.05,0,0,0-2.11.64.68.68,0,0,0-.39.87,9.49,9.49,0,0,0,.3,1q2,5.88,4.23,11.66a101.75,101.75,0,0,0,4.5,10.15,22.57,22.57,0,0,0,1.88,3.13,7.24,7.24,0,0,0,.77.88.83.83,0,0,0,1,.2,15.1,15.1,0,0,0,3.17-1.81.54.54,0,0,0,.23-.55Zm2.57-86c.25,0,.65-.07,1-.14,1.67-.33,3.32-.68,5-1.13A91.27,91.27,0,0,0,199.54,201c5.44-2.75,10.76-5.71,16.27-8.31a3.89,3.89,0,0,0,.78-.48.38.38,0,0,0,.11-.47.44.44,0,0,0-.37-.32,1.55,1.55,0,0,0-.52,0c-.38.11-.74.25-1.1.39l-37.9,13.84c-2.05.74-2,.58-1.16,2.76a2.56,2.56,0,0,0,.11.24.83.83,0,0,0,.88.43Zm4.89-116.76h-.42c-.83,0-1.08.23-1.22,1s-.23,1.64-.36,2.45a51.51,51.51,0,0,1-2.08,7.94q-1.17,3.6-2.33,7.2a11.17,11.17,0,0,0-.34,1.26.88.88,0,0,0,.56,1.17c1.17.58,2.35,1.14,3.53,1.7.7.33.89.25,1.2-.44.1-.25.19-.5.29-.73.77-2.16,1.56-4.33,2.3-6.52,1.39-4.07,2.54-8.22,4.13-12.22,0,0,0-.09.05-.13.18-.57.13-.77-.41-1.07a14.4,14.4,0,0,0-3.63-1.44,10.32,10.32,0,0,0-1.27-.22Zm69.9,160.86c-.1.65,0,.95.4,1.13a6.91,6.91,0,0,0,.85.35l15.49,5.48a5.69,5.69,0,0,0,.74.23.71.71,0,0,0,.93-.5,4.44,4.44,0,0,0,.19-.62c.45-1.72.89-3.44,1.34-5.17a5,5,0,0,0,.16-.75.69.69,0,0,0-.5-.82,8.17,8.17,0,0,0-1-.27l-8.56-1.75c-2.56-.52-5.12-1-7.69-1.5-.93-.18-1.3,0-1.57.91-.33,1.16-.57,2.36-.78,3.28Zm-149-17.52v0c-.82,0-1.66,0-2.47-.08a2,2,0,0,0-1.64.64A48.86,48.86,0,0,1,92,241.32c-3,2.08-6,4-9,6-2.88,1.81-5.77,3.59-8.64,5.38-.41.26-.8.53-1.18.82a.48.48,0,0,0-.05.79,7.78,7.78,0,0,1,1.11,1.44c.23.43.4.47.84.22.91-.51,1.83-1,2.71-1.57Q91.36,246,105,237.68c.14-.1.3-.18.44-.29.49-.36.66-.7.52-1.08s-.59-.47-1-.49c-.85,0-1.74,0-2.6-.09ZM249.47,41.11a26.06,26.06,0,0,1-7.73-2.37c-1-.46-2-.89-3-1.35a10.2,10.2,0,0,0-2.48-.77c-2.65-.5-5.31-1-8-1.5a5.93,5.93,0,0,0-2.84.1c-1.33.41-2.68.77-4,1.12a27.42,27.42,0,0,0-4.42,1.6c-1.79.8-3.57,1.62-5.37,2.39A34.24,34.24,0,0,1,205,42.46a13,13,0,0,1-5.58,0,23.72,23.72,0,0,1-2.88-.83c-.89-.34-1.79-.7-2.69-1s-1.65-.55-2.49-.79a5.81,5.81,0,0,0-2.2-.14,1.63,1.63,0,0,0-.61.2.34.34,0,0,0,0,.56l.33.2c2,.91,4,1.86,6.08,2.7a22.94,22.94,0,0,0,12.95,1.28,33.42,33.42,0,0,0,7.59-2.36c2.08-.9,4.14-1.85,6.2-2.78a40.74,40.74,0,0,1,6.87-2.46,13.26,13.26,0,0,1,5.71-.15,21,21,0,0,1,2.91.74c1.6.57,3.19,1.19,4.77,1.78,1.22.44,2.46.89,3.7,1.29a9.38,9.38,0,0,0,3.9.39ZM24.1,175.62a.8.8,0,0,0-1,.4,22.7,22.7,0,0,0-1,2.11c-.22.5-.06.78.47,1,.35.17.72.3,1.09.44l13.72,5.09c1.23.46,2.45.92,3.67,1.36.78.27.94.21,1.37-.55.67-1.21,1.34-2.44,2-3.67.8-1.47.76-1.55-.91-1.89-6.26-1.32-12.53-2.62-18.74-4.18l-.7-.15Zm167.8,166.8a8.86,8.86,0,0,0,3-1.09c.55-.35.63-.62.37-1.21-.52-1.15-1.09-2.28-1.58-3.43q-3.14-7.47-6.23-14.94c-.18-.44-.35-.89-.56-1.32-.27-.59-.54-.66-1.14-.35a7,7,0,0,0-.77.48l-1.76,1.15c-1.18.78-1.19.79-.69,2.08.17.45.36.89.56,1.33.49,1.06,1,2.14,1.48,3.19q3.15,6.58,6.35,13.16a4.43,4.43,0,0,0,.38.68c.11.19.32.26.63.27Zm-84.32-99.2c0-.25,0-.38,0-.51s-.1-.28-.24-.27a.45.45,0,0,0-.31.18,5.63,5.63,0,0,0-.49,1.06c-.32,1-.62,2-.86,3a40,40,0,0,1-1.87,5.83q-5.28,13.12-10.53,26.27c-.16.41-.33.81-.47,1.22-.19.56-.08.82.46,1,1.07.38,2.13.73,3.23,1.06.53.16.8,0,1-.56a12.11,12.11,0,0,0,.38-1.25l4-15.13c1.32-5,2.66-9.91,4-14.87.45-1.64.91-3.26,1.34-4.91.19-.73.29-1.52.41-2.16ZM251.17,62.85l-.61-.23c-2.41-.86-4.82-1.75-7.25-2.6a59.94,59.94,0,0,0-16.87-3.29,4.61,4.61,0,0,0-3.06.82,18.73,18.73,0,0,1-7.68,3.14,26.1,26.1,0,0,1-8.32,0,64.33,64.33,0,0,1-8.56-1.86c-1.59-.44-3.19-.91-4.77-1.35-.31-.08-.63-.27-1-.08a2.75,2.75,0,0,0,1.32,1.27c1.9,1,3.77,2,5.69,2.94a29.17,29.17,0,0,0,5.5,2.07,20.25,20.25,0,0,0,14.34-1.56c1.55-.8,3.08-1.65,4.63-2.42a17.22,17.22,0,0,1,12.7-1.23q3,.84,5.84,1.86c2.09.75,4.19,1.49,6.28,2.22a3,3,0,0,0,1.81.26ZM94.8,225.05c0-.17,0-.35,0-.53-.06-.86-.2-1-1-1.29-.25-.09-.51-.14-.75-.21-4.67-1.18-9.35-2.38-14-3.55q-4.31-1.09-8.62-2.15a4.46,4.46,0,0,0-.89-.14.21.21,0,0,0-.18.29,2.53,2.53,0,0,0,.38.66,12.9,12.9,0,0,0,3.59,3.19,32.82,32.82,0,0,0,7.59,3.42A81.59,81.59,0,0,0,92,227.35c.47.08.93.17,1.42.22a.92.92,0,0,0,1-.61,3.9,3.9,0,0,0,.31-1.91Zm128.72,8.44v-.1c.65,0,1.3,0,2,0,1.12,0,1.51-.38,1.2-1.66a87.27,87.27,0,0,1-1.62-9.9c-.38-3.1-.69-6.22-1.08-9.32a43.06,43.06,0,0,0-1.68-7.77,25,25,0,0,0-1.75-4.22,6.26,6.26,0,0,0-.67-1,.51.51,0,0,0-.7,0,2.18,2.18,0,0,0-.34.4,12.39,12.39,0,0,1-2.82,2.87c-.56.44-1.1.86-1.62,1.32a5.83,5.83,0,0,0-1.27,1.48,1.8,1.8,0,0,0-.25,1.73c.16.41.28.83.41,1.24,1.74,5.34,3.4,10.69,4.66,16.17a19.31,19.31,0,0,1,.68,5,6.36,6.36,0,0,0,.4,2,2.06,2.06,0,0,0,2,1.57c.83,0,1.65.06,2.49.11Zm-99.34-61.58a41.53,41.53,0,0,0-.11-8.35,11.75,11.75,0,0,0-1-3.64,5.6,5.6,0,0,0-2.66-2.77c-1.06-.52-1.33-.45-1.85.59-1,1.85-1.85,3.75-2.82,5.59a3.13,3.13,0,0,0-.15,2.75,78.29,78.29,0,0,0,3.7,8.77c.49,1,1.05,1.9,1.59,2.84a11,11,0,0,0,1.67,2.17,3.06,3.06,0,0,0,1.41.9.51.51,0,0,0,.66-.57c-.09-.6-.23-1.19-.33-1.79a37.24,37.24,0,0,1-.14-6.49ZM211.79,364c-.61.76-.61.75-1.68.93a11.61,11.61,0,0,0-1.28.26,6.57,6.57,0,0,0-2.94,1.62,1.65,1.65,0,0,0-.55,1.65c.08.38.18.75.27,1.14a44.94,44.94,0,0,1,1.51,10.56,1.77,1.77,0,0,0,.07.52.37.37,0,0,0,.4.28,2.83,2.83,0,0,0,.63-.18l7-3a2.52,2.52,0,0,0,.58-.32.42.42,0,0,0,.14-.58c-.24-.37-.48-.72-.74-1.07a26.69,26.69,0,0,1-3-5,6.24,6.24,0,0,1-.42-4.21,7.46,7.46,0,0,0,.3-1.92c0-.25,0-.52-.26-.69ZM193,174.39c.07.53.15,1,.19,1.39a3.13,3.13,0,0,0,1,2.05c.17.15.31.32.47.46a27.3,27.3,0,0,1,6.08,7.76c.53,1,1.17,1.92,1.76,2.9a1.86,1.86,0,0,0,1,.94c.75.21,1.5.45,2.26.6a2.84,2.84,0,0,0,1.55-.12,8.53,8.53,0,0,0,3.13-1.83c1.28-1.22,1.18-1.24.62-2.84a1,1,0,0,0-.17-.35,4.9,4.9,0,0,1-.84-1.88c-.21-.61-.44-1.23-.69-1.83a45.88,45.88,0,0,0-5.79-9.74,38.51,38.51,0,0,0-4.36-4.84,15.28,15.28,0,0,0-3-2.27,10.52,10.52,0,0,0-1.17-.57c-.44-.17-.69,0-.63.5a10.85,10.85,0,0,1-.3,3.89c-.24,1-.54,2.1-.75,3.16-.17.9-.26,1.8-.39,2.62ZM72.49,230.3c-.66,0-1.31,0-2,0a4,4,0,0,0-.78.08.78.78,0,0,0-.67.94,1.41,1.41,0,0,0,.59,1,6.4,6.4,0,0,1,2,3.31,22.31,22.31,0,0,1,.54,2.68c.23,1.59.37,3.18.56,4.79a9,9,0,0,0,.22,1.15.89.89,0,0,0,.86.66c.31,0,.62,0,.91,0a21,21,0,0,0,4.26-.6,26.75,26.75,0,0,0,9-3.71,9.63,9.63,0,0,0,1.81-1.5c.4-.44.44-.66.13-1.15a11.52,11.52,0,0,0-2.24-2.53,19,19,0,0,0-4.76-2.93,27.57,27.57,0,0,0-10.41-2.18ZM97.4,255.51A3.62,3.62,0,0,0,95,251.77c-.92-.34-1.19-.3-1.83.45a16.07,16.07,0,0,1-3.72,3.05c-1,.6-2,1.15-2.92,1.74s-1.79,1.08-2.65,1.68c-.57.4-1.07.87-1.61,1.33a1.57,1.57,0,0,0-.46,1.87,25,25,0,0,0,2.16,4.88,12,12,0,0,0,2.29,2.83,5.55,5.55,0,0,0,1.53,1,1.13,1.13,0,0,0,1.41-.3c.12-.13.24-.26.35-.4A64.73,64.73,0,0,0,95,262a20.52,20.52,0,0,0,1.9-4.15,9,9,0,0,0,.48-2.3ZM247.15,52.29c-.21-.18-.27-.25-.35-.28-3.52-1.24-7-2.61-10.63-3.62a53.86,53.86,0,0,0-7.94-1.57,6.67,6.67,0,0,0-3.91.62,42.62,42.62,0,0,1-14.14,4.38,22.13,22.13,0,0,1-11.41-1.33c-2.16-.91-4.38-1.73-6.57-2.59a10.27,10.27,0,0,0-1.11-.36c-.12,0-.29,0-.3.17s0,.29.1.34a3,3,0,0,0,.67.41c2,.92,3.93,1.85,5.92,2.75a42.66,42.66,0,0,0,5.5,2,23.61,23.61,0,0,0,8.27.92,11.84,11.84,0,0,0,3.79-.89c3.46-1.53,7-3,10.43-4.51a8.51,8.51,0,0,1,2.12-.63,12.05,12.05,0,0,1,5,.46,29.93,29.93,0,0,1,4.15,1.55c1.08.48,2.15.94,3.25,1.38a14.78,14.78,0,0,0,3.64,1,7.24,7.24,0,0,0,3.49-.24ZM71.57,346.21H71.5c0-.44,0-.87,0-1.31-.08-.79-.54-1.06-1.26-.76a6.63,6.63,0,0,0-.59.31l-3.33,1.79c-2.14,1.16-4.32,2.27-6.34,3.63-.72.49-1.42,1-2.11,1.54a4.46,4.46,0,0,0-1,1.16c-.44.71-.23,1.18.6,1.25a11.43,11.43,0,0,0,1.17,0c1.75,0,3.48,0,5.23,0a4.35,4.35,0,0,1,2.36.62c.7.44,1.43.82,2.16,1.21a6.84,6.84,0,0,0,.81.41.45.45,0,0,0,.63-.29,11.55,11.55,0,0,0,.39-1.51c.11-.66,0-.93-.69-1.2a9.57,9.57,0,0,1-1.78-.82,2.39,2.39,0,0,1-.92-.89.4.4,0,0,1,.21-.54,2.46,2.46,0,0,1,1.67.06c.5.17,1,.38,1.47.55s.83.07.91-.55q.27-2.36.54-4.68ZM246.22,71.7c-2.54-.45-5-.9-7.42-1.32a30.63,30.63,0,0,0-6.89-.61c-1.34.08-2.68.22-4,.31l-9.78.68-7.17.49a16.86,16.86,0,0,1-5.57-.39c-3.32-.88-6.69-1.63-10-2.42-.29-.07-.69-.33-.85-.07s.26.59.51.76a12.47,12.47,0,0,0,1.53,1,15.57,15.57,0,0,0,3.41,1.33,34.88,34.88,0,0,0,7.59,1.25c3,.16,6,.31,9,.17,4.31-.23,8.61-.5,12.87-1.14a25.81,25.81,0,0,1,5.48-.24c1.31.07,2.61.2,3.9.34a38.52,38.52,0,0,0,6.79.13.79.79,0,0,0,.66-.26ZM76.82,323.9c0,.73.06,1.48.12,2.21a11.08,11.08,0,0,0,.21,1.15,1.17,1.17,0,0,0,.42.78,2.27,2.27,0,0,0,1.88.3c.49-.11.58-.6.73-1,0-.12.09-.25.13-.37q2.16-6.35,4.31-12.7c.08-.2.14-.42.21-.61a1,1,0,0,0-.37-1.26c-1-.84-2.08-1.72-3.13-2.57a2.47,2.47,0,0,0-.44-.27.34.34,0,0,0-.45.16,6.28,6.28,0,0,0-.25.73c-.33,1.08-.66,2.16-1,3.23-.44,1.31-.92,2.62-1.34,3.94a20.1,20.1,0,0,0-1,6.28ZM19.15,266.09a19.38,19.38,0,0,0,6.43-.86,3.24,3.24,0,0,0,1.08-.46c.14-.1.14-.38,0-.44-.4-.18-.79-.36-1.2-.5-4.94-1.67-9.9-3.33-14.84-5a11.74,11.74,0,0,1-2.31-.89,1.61,1.61,0,0,0-1.14-.11.59.59,0,0,0-.54.5c-.06,1.27-.08,2.52.93,3.52a13.1,13.1,0,0,0,4,2.68,18.36,18.36,0,0,0,7.63,1.58Zm245-85.16c1.22.44,1.22.44,1.45,1.54.44,2,.88,4,1.29,6a21.15,21.15,0,0,1,.43,7.52c-.1.64-.17,1.29-.24,1.93,0,.44.27.63.68.47a4.24,4.24,0,0,0,1.87-1.58,6.54,6.54,0,0,0,.9-2.3,16.73,16.73,0,0,0,.15-5.19c-.31-3.08-1-6.09-1.22-9.18a1.11,1.11,0,0,0-.42-.92,14.52,14.52,0,0,1-1.81-1.7c-.26-.27-.54-.22-.73.14a10.5,10.5,0,0,1-1.41,2.19c-.28.34-.56.68-.94,1.09Zm-167.74,36c.23,0,.37,0,.49-.06a1.09,1.09,0,0,0,.93-1.42,8.19,8.19,0,0,0-.28-1,3.94,3.94,0,0,0-3-2.93c-2.91-.73-5.77-1.66-8.65-2.49-4.39-1.27-8.77-2.55-13.16-3.81a7.46,7.46,0,0,0-1.14-.24.49.49,0,0,0-.49.36.47.47,0,0,0,0,.5,1.25,1.25,0,0,0,.39.33c.42.23.87.4,1.29.62A2.09,2.09,0,0,1,74,208.51c0,.39.14.77.2,1.16.29,1.78.28,1.82,2,2.25q9.61,2.45,19.24,4.84c.34.08.69.12.93.18ZM17.63,171.29a1.48,1.48,0,0,0,.68.53c1.41.76,1.42.77.88,2.32-.84,2.41-1.71,4.83-2.55,7.25-.13.37-.28.73-.38,1.11s0,.7.45.93c.28.13.57.24.85.35l7.77,3.05,13.49,5.28a5.25,5.25,0,0,0,.73.25c.21,0,.5-.23.54-.49a.38.38,0,0,0-.2-.43,5.55,5.55,0,0,0-.6-.29c-2.66-1.19-5.33-2.37-8-3.57-4-1.82-8-3.77-12.19-5.34l-.24-.1a.91.91,0,0,1-.63-1c.07-.61.17-1.21.28-1.81.45-2.34,1.16-4.63,1.74-6.94.1-.37.39-.76.07-1.11s-.58.09-.86.06-.69-.07-1-.09-.49-.17-.81.06ZM155.38,64.1a16.75,16.75,0,0,0-4.45-2.73c-.53-.2-1.07-.37-1.62-.52a7.69,7.69,0,0,0-4.12,0,18,18,0,0,0-2.69,1c-.75.34-1.51.68-2.28,1a13.15,13.15,0,0,1-6.81.62,17.15,17.15,0,0,1-4.78-1.7,1.51,1.51,0,0,0-1-.36,3,3,0,0,0,1.27,1.17,47.93,47.93,0,0,0,5.18,2.16,12.55,12.55,0,0,0,6.17.47,13.33,13.33,0,0,0,3-.94c.88-.4,1.75-.79,2.64-1.15a7.52,7.52,0,0,1,4.73-.34c1.18.31,2.36.62,3.53,1l1.27.4ZM32.78,213.2a15.32,15.32,0,0,0-1.62,3.8c-1.33,4.2-2.37,8.46-3.41,12.73a149.89,149.89,0,0,1-4,14.44c-.05.16-.17.31,0,.53.34-.17.44-.52.59-.8.86-1.52,1.69-3.05,2.54-4.56a9.36,9.36,0,0,0,1-2.66c1.34-5.63,2.47-11.3,3.61-17q.66-3.26,1.29-6.51Zm229.5,73.64a.85.85,0,0,0-1,.68,11.11,11.11,0,0,0-.31,1.13c-.63,2.57-1.24,5.14-1.87,7.71-.34,1.39-.7,2.78-1,4.18-.22.95-.14,1.08.69,1.59a4,4,0,0,0,.58.3.48.48,0,0,0,.66-.23,8.45,8.45,0,0,0,.39-1.1c1.17-4,2.33-8.08,3.53-12.12.56-1.91.37-1.74-1.43-2.09a.48.48,0,0,0-.26-.05Zm-148-138.2A3.27,3.27,0,0,0,113,149q-1.92.81-3.84,1.65a5.18,5.18,0,0,0-.58.28.75.75,0,0,0-.41.87,3.43,3.43,0,0,0,.65,1.56,8.19,8.19,0,0,0,3.67,2.82,2.72,2.72,0,0,0,.37.13c.7.21.94.13,1.26-.53.55-1.14,1.06-2.29,1.54-3.46a9.85,9.85,0,0,0,.47-1.63,1.71,1.71,0,0,0-1.8-2.05Zm11-92.1a2.26,2.26,0,0,0,1.08,1.06,33.35,33.35,0,0,0,4.82,2,11.2,11.2,0,0,0,8-.59c.78-.38,1.6-.69,2.41-1a5.8,5.8,0,0,1,3.59-.2c1.09.29,2.19.57,3.29.83.17,0,.38.24.57,0a17.34,17.34,0,0,0-3.3-1.86,7.81,7.81,0,0,0-6.09-.15c-.77.3-1.53.62-2.29.94a12.18,12.18,0,0,1-10.48-.19c-.47-.18-.94-.43-1.61-.77ZM136.2,29.48a1.31,1.31,0,0,0,1.14-.32c.72-.62,1.46-1.24,2.17-1.88,1.55-1.4,3.05-2.87,4.68-4.17a18.11,18.11,0,0,1,8.28-3.95A2.72,2.72,0,0,0,153,19c.13,0,.24-.14.18-.28a.28.28,0,0,0-.18-.16,4.65,4.65,0,0,0-3.18.31c-1.21.62-2.42,1.19-3.65,1.77s-2.22,1-3.32,1.51a17.13,17.13,0,0,0-7.07,6.24,2.07,2.07,0,0,0-.28.58.38.38,0,0,0,.15.32,2.89,2.89,0,0,0,.57.16ZM284.36,181.17a3.67,3.67,0,0,0-.39-1.68,2.12,2.12,0,0,0-2.28-1.36,2.28,2.28,0,0,0-1.1.36l-3.76,1.8a3.47,3.47,0,0,0-.46.25c-.37.24-.4.6-.05.83a4,4,0,0,0,.58.31c1,.48,2,.88,2.94,1.4a2.77,2.77,0,0,0,2.73.06c.28-.14.56-.26.83-.38a1.36,1.36,0,0,0,1-1.59ZM140.83,72.47c-.19-.08-.39-.17-.59-.24-.58-.22-1.15-.42-1.71-.66s-.56-.62-.18-1a2,2,0,0,1,1.39-.64l3.12-.28,6.08-.56c-2.22-.2-4.44-.3-6.65-.4a13,13,0,0,1-2.84-.4q-3.22-.8-6.47-1.56a1.64,1.64,0,0,0-1.12-.1,16.53,16.53,0,0,0,7,5.69,2.68,2.68,0,0,0,1.94.19Zm6.56-33.2c-1.66-.28-3.09-.49-4.5-.75-4-.76-7.94-1.56-11.92-2.31-1.41-.27-2.84-.45-4.26-.62a11.39,11.39,0,0,0-1.43,0,.42.42,0,0,0-.38.33.43.43,0,0,0,.26.54,5.4,5.4,0,0,0,1,.34c1.65.42,3.32.69,5,1,3.19.52,6.37.94,9.58,1.22a47.53,47.53,0,0,0,6.67.3ZM260.53,176c0-.18-.1-.64-.2-1.12a1.37,1.37,0,0,0-1.72-1.14,3.4,3.4,0,0,0-.84.32l-2,1c-1.65.83-1.65.83-1.11,2.57.06.16.09.34.16.5a.77.77,0,0,0,1,.55c1.37-.42,2.72-.88,4.08-1.34.48-.17.67-.53.6-1.32ZM135,32.86a1.69,1.69,0,0,1,.08-.24c-1.65-.59-3.11-1.54-4.69-2.23-.52-.23-1.06-.39-1.59-.59a4.69,4.69,0,0,0-3.92.37,1.91,1.91,0,0,0-1,1,.51.51,0,0,0,.33.72,4.91,4.91,0,0,0,.77.1c.56,0,1.13,0,1.69.09,2,.21,3.89.44,5.85.62.83.09,1.64.12,2.47.17ZM148.8,49.53,145.86,49c-5.44-1.06-10.79-2.45-16.12-4-1.85-.53-3.69-1-5.54-1.55-.17-.05-.4-.21-.58.14.53.24,1,.47,1.56.66,2.15.84,4.35,1.55,6.57,2.19a95.61,95.61,0,0,0,12.73,2.87,13.31,13.31,0,0,0,4.32.18Zm-39.48,179v.4c0,.71.27,1,1,1.11.51.09.7-.1.92-.83,0-.08,0-.17.07-.25.37-1.47.7-2.95,1.11-4.41s-.18-1.61-1.22-1.88l-.13,0c-.53-.08-.85.1-.94.64-.3,1.8-.55,3.59-.81,5.25Zm15.46-179a.75.75,0,0,0,.41.61,12,12,0,0,0,2.21,1.38,32.13,32.13,0,0,0,7.74,2.68,25.35,25.35,0,0,0,7.52.46,1.93,1.93,0,0,0,1.06-.32c-2.91-.17-5.63-.4-8.35-.82a19.65,19.65,0,0,1-8.74-3.16,4.44,4.44,0,0,0-1.85-.83ZM60,109.73a5.7,5.7,0,0,0-.17-.74.33.33,0,0,0-.51-.18,4.52,4.52,0,0,0-1.77,3.44c0,.33.19.46.52.36a2.31,2.31,0,0,0,1.8-2c0-.3.09-.6.13-.91Zm63-57.57.24-.09c-.08-.42-.14-.83-.21-1.26-.26-1.44-.51-2.89-.76-4.33a1.16,1.16,0,0,0-.26-.71.38.38,0,0,0-.24-.09c-.11,0-.27.08-.31.18a1.35,1.35,0,0,0-.06.89,22.59,22.59,0,0,0,.82,3.53c.23.62.52,1.24.78,1.88Zm2.85-27.86a22.51,22.51,0,0,0,2.22-6.56,10.59,10.59,0,0,0-2.22,6.56ZM258,207.82a7.33,7.33,0,0,0,2.38-.34,2.62,2.62,0,0,0,.48-.22.3.3,0,0,0,.13-.21.26.26,0,0,0-.13-.19l-1.11-.37a2,2,0,0,0-2,.27c-.32.22-.89.36-.8.73.11.55.72.27,1,.33ZM138.27,43a4.86,4.86,0,0,0,0-1.7.29.29,0,0,0-.16-.18.26.26,0,0,0-.24,0,.92.92,0,0,0-.26.29,3.1,3.1,0,0,0-.12,3.3.47.47,0,0,0,.31.21.31.31,0,0,0,.33-.33c0-.55.09-1.11.12-1.64Zm-1.53-10a14.62,14.62,0,0,0,3.62-.25,5.42,5.42,0,0,0,2.29-.83.36.36,0,0,0,.14-.21c0-.16-.16-.17-.29-.15a13.16,13.16,0,0,0-2.63.66,13.41,13.41,0,0,1-3.13.78ZM26.43,260.79a8.1,8.1,0,0,0,5.38,1.45c-1.84-.6-3.59-1.05-5.38-1.45Zm87.74-58.33c0,.68.29.93.92.86a.44.44,0,0,0,.41-.54,6.48,6.48,0,0,0-.69-1.65.26.26,0,0,0-.22-.1c-.07,0-.18.1-.18.16-.11.46-.18.93-.24,1.27ZM52.91,99.28a7,7,0,0,0,2.77,3.13,11,11,0,0,0-2.77-3.13Zm220.27,82.48c-.15,0-.37,0-.58.05a.27.27,0,0,0-.19.15.22.22,0,0,0,.07.22,2.21,2.21,0,0,0,1.71.45.42.42,0,0,0,.26-.26.35.35,0,0,0-.18-.44,2.34,2.34,0,0,0-1.09-.17ZM82.76,132.63a9.19,9.19,0,0,1,1.29-1.44.35.35,0,0,0,0-.55.31.31,0,0,0-.45.13,7.28,7.28,0,0,0-.82,1.86ZM74.31,139c-1,.56-1,.56-1.46,1.23,1.08-.51,1.08-.51,1.46-1.23ZM18.09,258.17a.81.81,0,0,0,.26-.93.89.89,0,0,0-.26.93ZM77.6,357.61a.25.25,0,0,0,.25-.21c0-.19-.13-.39-.26-.32a.47.47,0,0,0-.2.28c0,.13.07.22.21.25Z"/><path class="cls-1" d="M133.22,208.64c-.25,0-.37.19-.52.34a1.37,1.37,0,0,1-1.21.32,1,1,0,0,1-.92-.77,10,10,0,0,1-.22-1.42,10.47,10.47,0,0,1,.36-3.11c.52-2.13,1.37-4.15,2.07-6.2.2-.61.46-.76,1.08-.65a12.47,12.47,0,0,1,1.63.38,24.61,24.61,0,0,1,3.7,1.48,3.48,3.48,0,0,1,.55.33.6.6,0,0,1,0,.92,4.93,4.93,0,0,1-.86.57c-.83.47-1.67.91-2.48,1.37-.19.1-.39.2-.45.44a.26.26,0,0,0,.11.2c.27.08.49-.11.72-.21a14.47,14.47,0,0,1,3.66-1.17,8.75,8.75,0,0,1,3.94.18,7,7,0,0,1,4.2,3.43,9,9,0,0,1,1.09,3.88,16,16,0,0,1-1.25,7.16c-.12.27-.26.54-.39.81s-.78.24-.86.72,0,.69,0,1a.42.42,0,0,1-.32.36,4.44,4.44,0,0,1-.88.18,26.31,26.31,0,0,1-6.27-.16l-.51-.1a4.34,4.34,0,0,1-3.52-3.4c-.2-.8-.39-1.62-.57-2.42a15.09,15.09,0,0,0-1.48-3.9.83.83,0,0,0-.45-.6Z"/><path class="cls-1" d="M159.39,210a50.47,50.47,0,0,1-1.24,8.91c-.5,2.37-1,4.74-1.35,7.15a2,2,0,0,1-.15.59c-.05.14-.19.35-.28.34-.57,0-.87.59-1.42.64a4.73,4.73,0,0,1-1.78-.3,11.56,11.56,0,0,1-2.22-.92,5,5,0,0,1-.69-.44c-.55-.44-.62-.66-.38-1.37.44-1.31.93-2.61,1.35-3.94,1.41-4.36,2.43-8.84,3.43-13.33.12-.52.25-1,.4-1.54a.44.44,0,0,1,.64-.32c.35.15.7.34,1,.51.65.35,1.26.73,1.92,1a1.39,1.39,0,0,1,.79,1.48c0,.56,0,1.09-.06,1.5Z"/><path class="cls-1" d="M145.06,190.18c.71.08,1.76.18,2.8.33a12.64,12.64,0,0,0,3.42.12,2.53,2.53,0,0,1,1.53.27,17.27,17.27,0,0,1,4.48,3.35,9.68,9.68,0,0,1,1.91,2.9,2.55,2.55,0,0,1,.26,1,.38.38,0,0,1-.43.37,8.22,8.22,0,0,1-1-.29c-1.65-.6-3.29-1.2-4.94-1.82q-5.91-2.19-11.83-4.4c-.46-.17-1.07-.17-1.22-.81.33-.42.85-.4,1.31-.5a16,16,0,0,1,3.71-.5Z"/><path class="cls-1" d="M136,193a23.93,23.93,0,0,1,6.66,1.61,11.06,11.06,0,0,1,3.28,2,6.57,6.57,0,0,1,.84.91c.35.48.13.89-.47,1a4.21,4.21,0,0,1-1.5-.1c-2.21-.64-4.41-1.25-6.6-1.91a18.27,18.27,0,0,1-2.29-1,3.74,3.74,0,0,1-.83-.5c-.57-.41-.71-.71-.57-1.15a1.1,1.1,0,0,1,1.34-.89.32.32,0,0,0,.14,0Z"/><path class="cls-1" d="M151,198.51a15.14,15.14,0,0,1,6.22,1.54,6,6,0,0,1,1.81,1.41,2,2,0,0,1,.47.86.31.31,0,0,1-.34.35,2.25,2.25,0,0,1-.58-.15c-2.75-1.11-5.5-2.22-8.24-3.35a1.64,1.64,0,0,1-.49-.31c-.09-.08-.06-.2.08-.26a2.93,2.93,0,0,1,1.07-.09Z"/><path class="cls-1" d="M170.47,34.7a6.57,6.57,0,0,1,3.21.84,5.35,5.35,0,0,1,.81.63.58.58,0,0,1,.2.58.48.48,0,0,1-.48.35c-.38,0-.77,0-1.14.08a.7.7,0,0,0-.65.69c0,.56,0,1.13-.07,1.69s-.23.71-.72.7a5,5,0,0,1-.75-.1c-1.08-.23-1.14-.3-1.26-1.43a4.18,4.18,0,0,0-.06-.51.42.42,0,0,0-.47-.35c-.33,0-.67.12-1,.18a9.52,9.52,0,0,1-2.25.36,3,3,0,0,1-1.9-.59.65.65,0,0,1,.05-1.16l.45-.24a16.76,16.76,0,0,1,5.2-1.63l.82-.09Z"/><path class="cls-1" d="M196.88,378.44a9.12,9.12,0,0,1-.43,3.16,37.21,37.21,0,0,0-1.12,6c-.27,2.11-.53,4.24-.83,6.34-.25,1.73-.44,1.86-2.15,1.53A47.13,47.13,0,0,1,184,393c-1.89-.74-3.79-1.49-5.63-2.35A167.21,167.21,0,0,0,161,383.93c-4.44-1.5-8.9-2.94-13.39-4.27a61.15,61.15,0,0,0-9.72-2c-2-.26-4-.55-6-.87-1.3-.2-1.59-.2-1.55-1.92a20.75,20.75,0,0,1,1.07-6,39.93,39.93,0,0,1,1.57-4c.54-1.17,1.09-2.34,1.61-3.51a27.46,27.46,0,0,0,2-6.18,4.37,4.37,0,0,1,.12-.52c.18-.59.37-.75.95-.72a9.67,9.67,0,0,1,1.43.22,11.44,11.44,0,0,1,5.07,2.77,19.29,19.29,0,0,1,3.08,3.66c1,1.47,1.86,3,2.73,4.57s1.69,3,2.56,4.52a23.3,23.3,0,0,0,2.31,3.25,9,9,0,0,0,3.87,2.72,27.45,27.45,0,0,0,5.81,1.3,59.9,59.9,0,0,0,8.46.46c3.05,0,6.1-.06,9.14-.34,1.36-.12,2.73-.21,4.1-.32,3-.2,6.07-.6,9.09-1,1.32-.15,1.48,0,1.54,1.27,0,.4,0,.8,0,1.33Z"/><path class="cls-1" d="M224.63,224.46a27.82,27.82,0,0,1-.33,4.83c-.19.93-.38,1.08-1.4,1.14a15.63,15.63,0,0,1-1.67-.06.85.85,0,0,1-.8-.63c-.09-.3-.19-.59-.26-.89-1.13-4.9-2.29-9.83-3.41-14.73a13.86,13.86,0,0,0-1-2.87c-.61-1.28-1.19-2.57-1.78-3.85a10.09,10.09,0,0,1-.4-1,.88.88,0,0,1,.28-1.08c1.56-1.26,3.11-2.52,4.68-3.76.58-.47.92-.38,1.35.26a12.19,12.19,0,0,1,1.27,2.62,45.89,45.89,0,0,1,1.58,5.58,70.87,70.87,0,0,1,1.76,13.12c0,.43.07.86.1,1.3Z"/><path class="cls-1" d="M123.4,169.78a10.51,10.51,0,0,1-.24,2.49,5.31,5.31,0,0,1-.34,1,.47.47,0,0,1-.65.17,1,1,0,0,1-.59-.59,4.77,4.77,0,0,1-.2-.57,17.92,17.92,0,0,0-1.39-3.7,6.51,6.51,0,0,1-.41-5.11,12.22,12.22,0,0,1,.82-2.26.39.39,0,0,1,.63-.08,3.69,3.69,0,0,1,.86,1.31,16.15,16.15,0,0,1,1.27,4.6,15.29,15.29,0,0,1,.24,2.72Z"/><path class="cls-1" d="M205.52,187.4a.79.79,0,0,1-.7-.27,3,3,0,0,1-.23-.3,22.36,22.36,0,0,0-4.05-4.42c-.9-.8-1.76-1.63-2.6-2.48a12.25,12.25,0,0,1-1.31-1.57,5.31,5.31,0,0,1-1.12-3.55c.11-2.33.09-4.66.14-7,0-.71.09-1.43.18-2.14a.48.48,0,0,1,.75-.41,6.6,6.6,0,0,1,1,.6,12.77,12.77,0,0,1,2.3,2.23,45.61,45.61,0,0,1,4.32,6.33,90.06,90.06,0,0,1,4.56,9c.17.38.34.78.48,1.17.27.74.21,1-.38,1.43a7.75,7.75,0,0,1-3.32,1.4Z"/><path class="cls-1" d="M73.39,233.22l4.22.6,6.08.89.8.12a1.8,1.8,0,0,1,1.3.78c.47.69,1,1.37,1.42,2.06.26.43.17.71-.32.88a8.33,8.33,0,0,0-2.78,1.66,5.75,5.75,0,0,1-1.86.95,28.65,28.65,0,0,1-3.62.93c-1.31.27-2.61.54-3.92.79-.67.13-.91,0-1-.62s-.27-1.35-.41-2c-.35-1.89-.69-3.76-1-5.65,0-.16-.08-.31-.1-.48-.09-.78.09-.94,1.27-.88Z"/><path class="cls-1" d="M87.11,269.3c-.13-.05-.22-.06-.27-.13a.52.52,0,0,1-.14-.22,10.19,10.19,0,0,0-2.14-3.73,6.23,6.23,0,0,1-1.32-2.66c-.12-.66,0-.91.55-1.22.31-.16.64-.28.95-.42A23.7,23.7,0,0,0,89.65,258a13.56,13.56,0,0,0,3.21-3.33c.48-.75.8-.81,1.5-.38a4,4,0,0,1,.72.58,1.41,1.41,0,0,1,.26,2.07c-.67,1.23-1.34,2.46-2.09,3.65-1.4,2.2-2.82,4.38-4.28,6.55-.45.67-1,1.27-1.49,1.9a1.85,1.85,0,0,1-.37.25Z"/><path class="cls-1" d="M67.12,348.43a.71.71,0,0,1,.81.65.58.58,0,0,1-.36.69.78.78,0,0,1-1-.77.58.58,0,0,1,.56-.57Z"/><path class="cls-1" d="M76.12,208.25c.51.1,1.27.23,2,.41a88,88,0,0,1,12.68,4.11c1.13.47,2.22,1,3.3,1.56a3.9,3.9,0,0,1,1.37,1,.69.69,0,0,1-.29,1.12,3.07,3.07,0,0,1-1.28,0A26.77,26.77,0,0,1,88,215.1c-1.76-.6-3.5-1.26-5.24-1.91a44.88,44.88,0,0,0-6.43-2c-1.24-.27-1.37-.47-1.47-1.87,0-.14,0-.27,0-.41,0-.5.17-.71.6-.72a3.9,3.9,0,0,1,.64,0Z"/></g></g></svg>