<svg xmlns="http://www.w3.org/2000/svg" viewBox="0 0 862 135.68"><defs><style>.cls-1{fill:#feca08;}</style></defs><g id="Layer_2" data-name="Layer 2"><g id="Merck"><path class="cls-1" d="M738.31,133.73a32,32,0,0,0,21.83-9.64c.12-.07,3.87-3.88,8.72-8.69a17.91,17.91,0,0,1,10.58-5.17,28.47,28.47,0,0,1,2.94-.17c1.47,0,2.93.17,4.37.3A43.91,43.91,0,0,1,799.52,114l37.38,15.55s9,4.18,16.65,4.18H859a3.11,3.11,0,0,0,3-3.22V116.77a24.2,24.2,0,0,0-14.92-22.45L839,91a59.87,59.87,0,0,1-18.07-11.14s-7.48-8.9,1.21-17.61L855.34,28.9A23.94,23.94,0,0,0,862,12.56a19.65,19.65,0,0,0-.66-5,11.59,11.59,0,0,0-2.58-4.29C856.64,1.18,853.71.09,850,0h-5.27A31.88,31.88,0,0,0,823,9.48c-.24.2-21.92,22-27.63,27.69L764.9,67.79V19.64A19.64,19.64,0,0,0,745.23,0h-8.45c-2.26,0-5.48,0-7,.84-1.27.68-1.26,2.06-1.26,3.31V130.81a2.93,2.93,0,0,0,2.93,2.92Z"/><path class="cls-1" d="M580.44,117.38s-7-2-20.9-13c-7.26-5.69-12.53-9.88-14.82-11.67,2.59-1.67,11-5,18.66-13.81,4.75-5.42,7.28-12.25,7.28-20.82a40.33,40.33,0,0,0-6.92-22.63,68.85,68.85,0,0,0-18-18.46A91.3,91.3,0,0,0,521,4.58,84.19,84.19,0,0,0,494,0H440a2.89,2.89,0,0,0-2.87,2.92V129.38c0,1.31,0,2.64,1.25,3.32,1.65.88,5.41,1,7.53,1a32.14,32.14,0,0,0,9.35-1.25,24.52,24.52,0,0,0,11.42-8.59c5.1-6.74,6.41-14.39,6.41-22.57V46.57a16.23,16.23,0,0,1,.41-3.66,12,12,0,0,1,1-2.38C478.61,33,492.7,30,507.84,33.84c20.17,5.09,26.13,19,23.95,25-2.25,6.49-9.56,10.53-18.62,10.53a44.13,44.13,0,0,1-13.44-2.23c-.13,0-3-.79-5.23-1.63-1.09-.33-3.18-1.33-4.72-1.33s-2.32,1.21-2.32,3.67V82.13a15.9,15.9,0,0,0,5,11.91c.09.14,44.09,34.78,44.09,34.78a23.17,23.17,0,0,0,13.88,4.89l29.1,0c2.07,0,3-1.38,3-3.81v-9.27a3.77,3.77,0,0,0-2.09-3.29"/><path class="cls-1" d="M404.48,99H365.7a39,39,0,0,1-15.42-3.53c-4.17-1.78-10.55-7.35-12.46-9.46a44.63,44.63,0,0,1-11.25-29.44c0-7,2-12.38,6-16.23a24.87,24.87,0,0,1,4.17-3.06,19.57,19.57,0,0,1,5.57-2.07,34.76,34.76,0,0,1,7.57-.83,33.68,33.68,0,0,1,7.54.83,38,38,0,0,1,12.87,5.27A69.55,69.55,0,0,1,387,55.73H346.65c-2.44,0-3.65,1.09-3.65,3.18a21.26,21.26,0,0,0,2.29,10.26,28.51,28.51,0,0,0,25.29,15.27h37.55c6.57,0,11.12-1.74,13.63-5.26S425,72.7,425,68c0-7.69-2-15.19-6.1-23.31A80.1,80.1,0,0,0,402.4,22.54,85.25,85.25,0,0,0,378.3,6.33,68.09,68.09,0,0,0,349.51,0h-55.2a2.92,2.92,0,0,0-2.89,2.92v55a72.48,72.48,0,0,0,6,29.21,77.15,77.15,0,0,0,40.08,40.44,71,71,0,0,0,29.22,6.19h55.39a2.91,2.91,0,0,0,2.9-2.91V119.72c0-6.48-1.82-11.53-5.43-15.24S410.87,99,404.48,99"/><path class="cls-1" d="M279.24,19.69A19.68,19.68,0,0,0,259.56,0H238.74a4,4,0,0,0-2.68,1.07L194.32,40.27c-14.29,13.45-33.54,21-54.69,21-22.06,0-42-8.25-56.48-22.69L52.2,9.49A35.3,35.3,0,0,0,28.87,0H4A3.94,3.94,0,0,0,0,4V114.08a19.68,19.68,0,0,0,19.68,19.65H32.44a4,4,0,0,0,3.93-4V90.61A18.7,18.7,0,0,1,54.8,71.89C73.58,71.89,87,88,99.17,98.7c14.87,13.13,26.36,25.82,40.46,25.82s25.56-12.69,40.44-25.82C192.23,88,205.66,71.89,224.43,71.89a18.72,18.72,0,0,1,18.43,18.53v23.66a19.65,19.65,0,0,0,19.66,19.64h12.76a4,4,0,0,0,4-4v-110"/><path class="cls-1" d="M713.5,77.75H693.27q-11.14,0-14.52,9.68a20.51,20.51,0,0,1-6.86,10,19.34,19.34,0,0,1-12.29,3.81,28.92,28.92,0,0,1-14.27-4.08,50.75,50.75,0,0,1-13.09-10.42,54.52,54.52,0,0,1-9.47-14.37,38,38,0,0,1-3.68-15.8c0-6.59,2-11.94,6-16a20.36,20.36,0,0,1,15.06-6.13q10.35,0,20.49,7.58a14.35,14.35,0,0,0,8.84,3.12q4.62,0,9.83-5.2L693,26.38c.88-.88,1.17-1.68.9-2.36a6.63,6.63,0,0,0-1.64-2.35A88.4,88.4,0,0,0,667.89,5.75,69.22,69.22,0,0,0,640.11,0H586c-2.07,0-3.14,1.22-3.14,3.67v54a71,71,0,0,0,6.39,29.77,81.28,81.28,0,0,0,17.08,24.77,84.61,84.61,0,0,0,24.63,17.11,68,68,0,0,0,28.69,6.37,59.09,59.09,0,0,0,22-4,54.52,54.52,0,0,0,17.62-11.22,52.68,52.68,0,0,0,11.91-17.23,64.43,64.43,0,0,0,5.22-21.76c.14-2.43-.81-3.7-2.87-3.7"/></g></g></svg>